<svg version="1.1" xmlns="http://www.w3.org/2000/svg" xmlns:xlink="http://www.w3.org/1999/xlink" width="816.83334" height="208.03638" viewBox="0,0,816.83334,208.03638"><g transform="translate(168.41667,-75.98181)"><g data-paper-data="{&quot;isPaintingLayer&quot;:true}" fill-rule="nonzero" stroke-linejoin="miter" stroke-miterlimit="10" stroke-dasharray="" stroke-dashoffset="0" style="mix-blend-mode: normal"><path d="M-75.35147,166.60085l79.20925,-9.12358" fill="none" stroke="#986800" stroke-width="1.5" stroke-linecap="round"/><path d="M1.78424,266.54551l-76.721,-35.25019" fill="none" stroke="#986800" stroke-width="1.5" stroke-linecap="round"/><path d="M-76.18089,229.63648l-74.23275,38.98256" fill="none" stroke="#986800" stroke-width="1.5" stroke-linecap="round"/><path d="M-77.0103,232.12473l1.65883,-65.52388" fill="none" stroke="#986800" stroke-width="1.5" stroke-linecap="round"/><path d="M-76.18088,165.35672l-77.96513,12.02654" fill="none" stroke="#986800" stroke-width="1.5" stroke-linecap="round"/><path d="M-75.76618,164.94202l-5.80592,-74.23275" fill="none" stroke="#986800" stroke-width="1.5" stroke-linecap="round"/><path d="M-163.26959,269.07694c0,-6.87111 5.57013,-12.44124 12.44124,-12.44124c6.87111,0 12.44124,5.57013 12.44124,12.44124c0,6.87111 -5.57013,12.44125 -12.44124,12.44125c-6.87111,0 -12.44124,-5.57014 -12.44124,-12.44125z" fill="#ffc14b" stroke="#ca8900" stroke-width="2" stroke-linecap="butt"/><path d="M-87.65447,165.39993c0,-6.87111 5.57014,-12.44125 12.44124,-12.44125c6.87111,0 12.44124,5.57014 12.44124,12.44125c0,6.87111 -5.57013,12.44124 -12.44124,12.44124c-6.87111,0 -12.44124,-5.57013 -12.44124,-12.44124z" fill="#ffc14b" stroke="#ca8900" stroke-width="2" stroke-linecap="butt"/><path d="M-167.41667,177.10679c0,-6.87111 5.57014,-12.44125 12.44125,-12.44125c6.87111,0 12.44124,5.57014 12.44124,12.44125c0,6.87111 -5.57013,12.44125 -12.44124,12.44125c-6.87111,0 -12.44125,-5.57014 -12.44125,-12.44125z" fill="#ffc14b" stroke="#ca8900" stroke-width="2" stroke-linecap="butt"/><path d="M-9.96582,157.89198c0,-6.87111 5.57013,-12.44124 12.44124,-12.44124c6.87111,0 12.44124,5.57013 12.44124,12.44124c0,6.87111 -5.57013,12.44124 -12.44124,12.44124c-6.87111,0 -12.44124,-5.57013 -12.44124,-12.44124z" fill="#ffc14b" stroke="#ca8900" stroke-width="2" stroke-linecap="butt"/><path d="M-94.42803,89.92305c0,-6.87111 5.57013,-12.44124 12.44124,-12.44124c6.87111,0 12.44125,5.57013 12.44125,12.44124c0,6.87111 -5.57014,12.44124 -12.44125,12.44124c-6.87111,0 -12.44124,-5.57013 -12.44124,-12.44124z" fill="#ffc14b" stroke="#ca8900" stroke-width="2" stroke-linecap="butt"/><path d="M-84.68239,131.92521l-5.18386,-6.42798h22.80895l-5.18385,6.42798z" fill="#33e0ff" stroke="#00aac8" stroke-width="1.5" stroke-linecap="round"/><text transform="translate(-154.56072,274.37744) scale(0.41471,0.41471)" font-size="40" xml:space="preserve" fill="#7d5600" fill-rule="nonzero" stroke="none" stroke-width="1" stroke-linecap="butt" stroke-linejoin="miter" stroke-miterlimit="10" stroke-dasharray="" stroke-dashoffset="0" font-family="Times New Roman" font-weight="normal" text-anchor="start" style="mix-blend-mode: normal"><tspan x="0" dy="0">7</tspan></text><text transform="translate(-78.66913,170.70042) scale(0.41471,0.41471)" font-size="40" xml:space="preserve" fill="#7d5600" fill-rule="nonzero" stroke="none" stroke-width="1" stroke-linecap="butt" stroke-linejoin="miter" stroke-miterlimit="10" stroke-dasharray="" stroke-dashoffset="0" font-family="Times New Roman" font-weight="normal" text-anchor="start" style="mix-blend-mode: normal"><tspan x="0" dy="0">3</tspan></text><text transform="translate(-158.70779,182.42887) scale(0.41471,0.41471)" font-size="40" xml:space="preserve" fill="#7d5600" fill-rule="nonzero" stroke="none" stroke-width="1" stroke-linecap="butt" stroke-linejoin="miter" stroke-miterlimit="10" stroke-dasharray="" stroke-dashoffset="0" font-family="Times New Roman" font-weight="normal" text-anchor="start" style="mix-blend-mode: normal"><tspan x="0" dy="0">5</tspan></text><text transform="translate(-1.53343,162.82097) scale(0.41471,0.41471)" font-size="40" xml:space="preserve" fill="#7d5600" fill-rule="nonzero" stroke="none" stroke-width="1" stroke-linecap="butt" stroke-linejoin="miter" stroke-miterlimit="10" stroke-dasharray="" stroke-dashoffset="0" font-family="Times New Roman" font-weight="normal" text-anchor="start" style="mix-blend-mode: normal"><tspan x="0" dy="0">6</tspan></text><text transform="translate(-89.45154,95.22355) scale(0.41471,0.41471)" font-size="40" xml:space="preserve" fill="#7d5600" fill-rule="nonzero" stroke="none" stroke-width="1" stroke-linecap="butt" stroke-linejoin="miter" stroke-miterlimit="10" stroke-dasharray="" stroke-dashoffset="0" font-family="Times New Roman" font-weight="normal" text-anchor="start" style="mix-blend-mode: normal"><tspan x="0" dy="0">11</tspan></text><path d="M-89.03684,232.16793c0,-6.87111 5.57014,-12.44125 12.44125,-12.44125c6.87111,0 12.44124,5.57014 12.44124,12.44125c0,6.87111 -5.57013,12.44125 -12.44124,12.44125c-6.87111,0 -12.44124,-5.57014 -12.44124,-12.44125z" fill="#ffc14b" stroke="#ca8900" stroke-width="2" stroke-linecap="butt"/><path d="M-13.00701,267.00341c0,-6.87111 5.57014,-12.44124 12.44125,-12.44124c6.87111,0 12.44124,5.57013 12.44124,12.44124c0,6.87111 -5.57013,12.44124 -12.44124,12.44124c-6.87111,0 -12.44125,-5.57013 -12.44125,-12.44124z" fill="#ffc14b" stroke="#ca8900" stroke-width="2" stroke-linecap="butt"/><text transform="translate(-80.74268,237.46842) scale(0.41471,0.41471)" font-size="40" xml:space="preserve" fill="#7d5600" fill-rule="nonzero" stroke="none" stroke-width="1" stroke-linecap="butt" stroke-linejoin="miter" stroke-miterlimit="10" stroke-dasharray="" stroke-dashoffset="0" font-family="Times New Roman" font-weight="normal" text-anchor="start" style="mix-blend-mode: normal"><tspan x="0" dy="0">4</tspan></text><text transform="translate(-4.43637,272.30391) scale(0.41471,0.41471)" font-size="40" xml:space="preserve" fill="#7d5600" fill-rule="nonzero" stroke="none" stroke-width="1" stroke-linecap="butt" stroke-linejoin="miter" stroke-miterlimit="10" stroke-dasharray="" stroke-dashoffset="0" font-family="Times New Roman" font-weight="normal" text-anchor="start" style="mix-blend-mode: normal"><tspan x="0" dy="0">9</tspan></text><path d="M-43.21158,168.00481l-5.18385,-6.42798h22.80895l-5.18385,6.42798z" fill="#33e0ff" stroke="#00aac8" stroke-width="1.5" stroke-linecap="round"/><path d="M-121.17671,175.05485l-5.18385,-6.42798h22.80895l-5.18385,6.42798z" fill="#33e0ff" stroke="#00aac8" stroke-width="1.5" stroke-linecap="round"/><path d="M-117.44434,251.77585l-5.18385,-6.42798h22.80895l-5.18385,6.42798z" fill="#33e0ff" stroke="#00aac8" stroke-width="1.5" stroke-linecap="round"/><path d="M-81.77944,204.91383l-5.18385,-6.42798h22.80895l-5.18385,6.42798z" fill="#33e0ff" stroke="#00aac8" stroke-width="1.5" stroke-linecap="round"/><path d="M-42.79688,253.84939l-5.18385,-6.42798h22.80895l-5.18385,6.42798z" fill="#33e0ff" stroke="#00aac8" stroke-width="1.5" stroke-linecap="round"/><path d="M139.14853,168.10085l79.20925,-9.12358" fill="none" stroke="#986800" stroke-width="1.5" stroke-linecap="round"/><path d="M216.28424,268.04551l-76.721,-35.25019" fill="none" stroke="#986800" stroke-width="1.5" stroke-linecap="round"/><path d="M138.31911,231.13648l-74.23275,38.98256" fill="none" stroke="#986800" stroke-width="1.5" stroke-linecap="round"/><path d="M139.14853,168.10085l-1.65883,65.52388" fill="none" stroke="#986800" stroke-width="1.5" stroke-linecap="round"/><path d="M60.35399,178.88326l77.96513,-12.02654" fill="none" stroke="#986800" stroke-width="1.5" stroke-linecap="round"/><path d="M132.92791,92.20927l5.80591,74.23275" fill="none" stroke="#986800" stroke-width="1.5" stroke-linecap="round"/><path d="M51.23041,270.57694c0,-6.87111 5.57013,-12.44124 12.44124,-12.44124c6.87111,0 12.44125,5.57013 12.44125,12.44124c0,6.87111 -5.57014,12.44125 -12.44125,12.44125c-6.87111,0 -12.44124,-5.57014 -12.44124,-12.44125z" fill="#ffc14b" stroke="#ca8900" stroke-width="2" stroke-linecap="butt"/><path d="M126.84553,166.89993c0,-6.87111 5.57014,-12.44125 12.44125,-12.44125c6.87111,0 12.44125,5.57014 12.44125,12.44125c0,6.87111 -5.57014,12.44124 -12.44125,12.44124c-6.87111,0 -12.44125,-5.57013 -12.44125,-12.44124z" fill="#ff9898" stroke="#c90000" stroke-width="2.5" stroke-linecap="butt"/><path d="M47.08334,178.60679c0,-6.87111 5.57014,-12.44125 12.44125,-12.44125c6.87111,0 12.44124,5.57014 12.44124,12.44125c0,6.87111 -5.57013,12.44125 -12.44124,12.44125c-6.87111,0 -12.44125,-5.57014 -12.44125,-12.44125z" fill="#ffc14b" stroke="#ca8900" stroke-width="2" stroke-linecap="butt"/><path d="M204.53418,159.39198c0,-6.87111 5.57013,-12.44124 12.44124,-12.44124c6.87111,0 12.44125,5.57013 12.44125,12.44124c0,6.87111 -5.57014,12.44124 -12.44125,12.44124c-6.87111,0 -12.44124,-5.57013 -12.44124,-12.44124z" fill="#ffc14b" stroke="#ca8900" stroke-width="2" stroke-linecap="butt"/><path d="M120.07197,91.42305c0,-6.87111 5.57013,-12.44124 12.44124,-12.44124c6.87111,0 12.44125,5.57013 12.44125,12.44124c0,6.87111 -5.57014,12.44124 -12.44125,12.44124c-6.87111,0 -12.44124,-5.57013 -12.44124,-12.44124z" fill="#ffc14b" stroke="#ca8900" stroke-width="2" stroke-linecap="butt"/><path d="M129.81761,133.42521l-5.18385,-6.42798h22.80895l-5.18385,6.42798z" fill="#33e0ff" stroke="#00aac8" stroke-width="1.5" stroke-linecap="round"/><text transform="translate(59.93928,275.87744) scale(0.41471,0.41471)" font-size="40" xml:space="preserve" fill="#7d5600" fill-rule="nonzero" stroke="none" stroke-width="1" stroke-linecap="butt" stroke-linejoin="miter" stroke-miterlimit="10" stroke-dasharray="" stroke-dashoffset="0" font-family="Times New Roman" font-weight="normal" text-anchor="start" style="mix-blend-mode: normal"><tspan x="0" dy="0">7</tspan></text><text transform="translate(135.83087,172.20042) scale(0.41471,0.41471)" font-size="40" xml:space="preserve" fill="#8e0000" fill-rule="nonzero" stroke="none" stroke-width="1" stroke-linecap="butt" stroke-linejoin="miter" stroke-miterlimit="10" stroke-dasharray="" stroke-dashoffset="0" font-family="Times New Roman" font-weight="normal" text-anchor="start" style="mix-blend-mode: normal"><tspan x="0" dy="0">3</tspan></text><text transform="translate(55.79221,183.92887) scale(0.41471,0.41471)" font-size="40" xml:space="preserve" fill="#7d5600" fill-rule="nonzero" stroke="none" stroke-width="1" stroke-linecap="butt" stroke-linejoin="miter" stroke-miterlimit="10" stroke-dasharray="" stroke-dashoffset="0" font-family="Times New Roman" font-weight="normal" text-anchor="start" style="mix-blend-mode: normal"><tspan x="0" dy="0">5</tspan></text><text transform="translate(212.96657,164.32097) scale(0.41471,0.41471)" font-size="40" xml:space="preserve" fill="#7d5600" fill-rule="nonzero" stroke="none" stroke-width="1" stroke-linecap="butt" stroke-linejoin="miter" stroke-miterlimit="10" stroke-dasharray="" stroke-dashoffset="0" font-family="Times New Roman" font-weight="normal" text-anchor="start" style="mix-blend-mode: normal"><tspan x="0" dy="0">6</tspan></text><text transform="translate(125.04846,96.72355) scale(0.41471,0.41471)" font-size="40" xml:space="preserve" fill="#7d5600" fill-rule="nonzero" stroke="none" stroke-width="1" stroke-linecap="butt" stroke-linejoin="miter" stroke-miterlimit="10" stroke-dasharray="" stroke-dashoffset="0" font-family="Times New Roman" font-weight="normal" text-anchor="start" style="mix-blend-mode: normal"><tspan x="0" dy="0">11</tspan></text><text transform="translate(132.51321,130.7296) scale(0.41471,0.41471)" font-size="40" xml:space="preserve" fill="#00798e" fill-rule="nonzero" stroke="none" stroke-width="1" stroke-linecap="butt" stroke-linejoin="miter" stroke-miterlimit="10" stroke-dasharray="" stroke-dashoffset="0" font-family="Times New Roman" font-weight="normal" text-anchor="start" style="mix-blend-mode: normal"><tspan x="0" dy="0">3</tspan></text><path d="M125.46316,233.66793c0,-6.87111 5.57013,-12.44125 12.44124,-12.44125c6.87111,0 12.44124,5.57014 12.44124,12.44125c0,6.87111 -5.57013,12.44125 -12.44124,12.44125c-6.87111,0 -12.44124,-5.57014 -12.44124,-12.44125z" fill="#ffc14b" stroke="#ca8900" stroke-width="2" stroke-linecap="butt"/><path d="M201.49299,268.50341c0,-6.87111 5.57013,-12.44124 12.44124,-12.44124c6.87111,0 12.44125,5.57013 12.44125,12.44124c0,6.87111 -5.57014,12.44124 -12.44125,12.44124c-6.87111,0 -12.44124,-5.57013 -12.44124,-12.44124z" fill="#ffc14b" stroke="#ca8900" stroke-width="2" stroke-linecap="butt"/><text transform="translate(133.75732,238.96842) scale(0.41471,0.41471)" font-size="40" xml:space="preserve" fill="#7d5600" fill-rule="nonzero" stroke="none" stroke-width="1" stroke-linecap="butt" stroke-linejoin="miter" stroke-miterlimit="10" stroke-dasharray="" stroke-dashoffset="0" font-family="Times New Roman" font-weight="normal" text-anchor="start" style="mix-blend-mode: normal"><tspan x="0" dy="0">4</tspan></text><text transform="translate(210.06363,273.80391) scale(0.41471,0.41471)" font-size="40" xml:space="preserve" fill="#7d5600" fill-rule="nonzero" stroke="none" stroke-width="1" stroke-linecap="butt" stroke-linejoin="miter" stroke-miterlimit="10" stroke-dasharray="" stroke-dashoffset="0" font-family="Times New Roman" font-weight="normal" text-anchor="start" style="mix-blend-mode: normal"><tspan x="0" dy="0">9</tspan></text><path d="M171.28841,169.50481l-5.18385,-6.42798h22.80894l-5.18385,6.42798z" fill="#33e0ff" stroke="#00aac8" stroke-width="1.5" stroke-linecap="round"/><text transform="translate(173.98402,166.80921) scale(0.41471,0.41471)" font-size="40" xml:space="preserve" fill="#00798e" fill-rule="nonzero" stroke="none" stroke-width="1" stroke-linecap="butt" stroke-linejoin="miter" stroke-miterlimit="10" stroke-dasharray="" stroke-dashoffset="0" font-family="Times New Roman" font-weight="normal" text-anchor="start" style="mix-blend-mode: normal"><tspan x="0" dy="0">3</tspan></text><path d="M93.32329,176.55485l-5.18385,-6.42798h22.80894l-5.18385,6.42798z" fill="#33e0ff" stroke="#00aac8" stroke-width="1.5" stroke-linecap="round"/><text transform="translate(96.01889,173.85925) scale(0.41471,0.41471)" font-size="40" xml:space="preserve" fill="#00798e" fill-rule="nonzero" stroke="none" stroke-width="1" stroke-linecap="butt" stroke-linejoin="miter" stroke-miterlimit="10" stroke-dasharray="" stroke-dashoffset="0" font-family="Times New Roman" font-weight="normal" text-anchor="start" style="mix-blend-mode: normal"><tspan x="0" dy="0">3</tspan></text><path d="M97.05566,253.27585l-5.18385,-6.42798h22.80894l-5.18385,6.42798z" fill="#33e0ff" stroke="#00aac8" stroke-width="1.5" stroke-linecap="round"/><text transform="translate(99.75127,250.58025) scale(0.41471,0.41471)" font-size="40" xml:space="preserve" fill="#00798e" fill-rule="nonzero" stroke="none" stroke-width="1" stroke-linecap="butt" stroke-linejoin="miter" stroke-miterlimit="10" stroke-dasharray="" stroke-dashoffset="0" font-family="Times New Roman" font-weight="normal" text-anchor="start" style="mix-blend-mode: normal"><tspan x="0" dy="0">3</tspan></text><path d="M132.72056,206.41383l-5.18385,-6.42798h22.80895l-5.18385,6.42798z" fill="#33e0ff" stroke="#00aac8" stroke-width="1.5" stroke-linecap="round"/><text transform="translate(135.41617,203.71823) scale(0.41471,0.41471)" font-size="40" xml:space="preserve" fill="#00798e" fill-rule="nonzero" stroke="none" stroke-width="1" stroke-linecap="butt" stroke-linejoin="miter" stroke-miterlimit="10" stroke-dasharray="" stroke-dashoffset="0" font-family="Times New Roman" font-weight="normal" text-anchor="start" style="mix-blend-mode: normal"><tspan x="0" dy="0">3</tspan></text><path d="M171.70312,255.34939l-5.18385,-6.42798h22.80894l-5.18385,6.42798z" fill="#33e0ff" stroke="#00aac8" stroke-width="1.5" stroke-linecap="round"/><text transform="translate(174.39873,252.65378) scale(0.41471,0.41471)" font-size="40" xml:space="preserve" fill="#00798e" fill-rule="nonzero" stroke="none" stroke-width="1" stroke-linecap="butt" stroke-linejoin="miter" stroke-miterlimit="10" stroke-dasharray="" stroke-dashoffset="0" font-family="Times New Roman" font-weight="normal" text-anchor="start" style="mix-blend-mode: normal"><tspan x="0" dy="0">3</tspan></text><path d="M348.14853,165.10085l79.70925,-7.62358" fill="none" stroke="#986800" stroke-width="1.5" stroke-linecap="round"/><path d="M425.78424,266.54551l-76.721,-35.25019" fill="none" stroke="#986800" stroke-width="1.5" stroke-linecap="round"/><path d="M347.81911,229.63648l-74.23275,38.98256" fill="none" stroke="#986800" stroke-width="1.5" stroke-linecap="round"/><path d="M348.14853,165.10085l-1.15883,67.02388" fill="none" stroke="#986800" stroke-width="1.5" stroke-linecap="round"/><path d="M269.85399,177.38326l77.96513,-12.02654" fill="none" stroke="#986800" stroke-width="1.5" stroke-linecap="round"/><path d="M342.42791,90.70927l5.80591,74.23275" fill="none" stroke="#986800" stroke-width="1.5" stroke-linecap="round"/><path d="M260.73041,269.07694c0,-6.87111 5.57013,-12.44124 12.44124,-12.44124c6.87111,0 12.44125,5.57013 12.44125,12.44124c0,6.87111 -5.57014,12.44125 -12.44125,12.44125c-6.87111,0 -12.44124,-5.57014 -12.44124,-12.44125z" fill="#ffc14b" stroke="#ca8900" stroke-width="2" stroke-linecap="butt"/><path d="M256.58334,177.10679c0,-6.87111 5.57014,-12.44125 12.44125,-12.44125c6.87111,0 12.44124,5.57014 12.44124,12.44125c0,6.87111 -5.57013,12.44125 -12.44124,12.44125c-6.87111,0 -12.44125,-5.57014 -12.44125,-12.44125z" fill="#ffc14b" stroke="#ca8900" stroke-width="2" stroke-linecap="butt"/><path d="M414.03418,157.89198c0,-6.87111 5.57013,-12.44124 12.44124,-12.44124c6.87111,0 12.44125,5.57013 12.44125,12.44124c0,6.87111 -5.57014,12.44124 -12.44125,12.44124c-6.87111,0 -12.44124,-5.57013 -12.44124,-12.44124z" fill="#ffc14b" stroke="#ca8900" stroke-width="2" stroke-linecap="butt"/><path d="M329.57197,89.92305c0,-6.87111 5.57013,-12.44124 12.44124,-12.44124c6.87111,0 12.44125,5.57013 12.44125,12.44124c0,6.87111 -5.57014,12.44124 -12.44125,12.44124c-6.87111,0 -12.44124,-5.57013 -12.44124,-12.44124z" fill="#ffc14b" stroke="#ca8900" stroke-width="2" stroke-linecap="butt"/><path d="M339.31761,131.92521l-5.18385,-6.42798h22.80895l-5.18385,6.42798z" fill="#33e0ff" stroke="#00aac8" stroke-width="1.5" stroke-linecap="round"/><text transform="translate(269.43928,274.37744) scale(0.41471,0.41471)" font-size="40" xml:space="preserve" fill="#7d5600" fill-rule="nonzero" stroke="none" stroke-width="1" stroke-linecap="butt" stroke-linejoin="miter" stroke-miterlimit="10" stroke-dasharray="" stroke-dashoffset="0" font-family="Times New Roman" font-weight="normal" text-anchor="start" style="mix-blend-mode: normal"><tspan x="0" dy="0">4</tspan></text><text transform="translate(265.29221,182.42887) scale(0.41471,0.41471)" font-size="40" xml:space="preserve" fill="#7d5600" fill-rule="nonzero" stroke="none" stroke-width="1" stroke-linecap="butt" stroke-linejoin="miter" stroke-miterlimit="10" stroke-dasharray="" stroke-dashoffset="0" font-family="Times New Roman" font-weight="normal" text-anchor="start" style="mix-blend-mode: normal"><tspan x="0" dy="0">2</tspan></text><text transform="translate(422.46657,162.82097) scale(0.41471,0.41471)" font-size="40" xml:space="preserve" fill="#7d5600" fill-rule="nonzero" stroke="none" stroke-width="1" stroke-linecap="butt" stroke-linejoin="miter" stroke-miterlimit="10" stroke-dasharray="" stroke-dashoffset="0" font-family="Times New Roman" font-weight="normal" text-anchor="start" style="mix-blend-mode: normal"><tspan x="0" dy="0">3</tspan></text><text transform="translate(338.04846,95.22355) scale(0.41471,0.41471)" font-size="40" xml:space="preserve" fill="#7d5600" fill-rule="nonzero" stroke="none" stroke-width="1" stroke-linecap="butt" stroke-linejoin="miter" stroke-miterlimit="10" stroke-dasharray="" stroke-dashoffset="0" font-family="Times New Roman" font-weight="normal" text-anchor="start" style="mix-blend-mode: normal"><tspan x="0" dy="0">8</tspan></text><text transform="translate(342.01321,129.2296) scale(0.41471,0.41471)" font-size="40" xml:space="preserve" fill="#00798e" fill-rule="nonzero" stroke="none" stroke-width="1" stroke-linecap="butt" stroke-linejoin="miter" stroke-miterlimit="10" stroke-dasharray="" stroke-dashoffset="0" font-family="Times New Roman" font-weight="normal" text-anchor="start" style="mix-blend-mode: normal"><tspan x="0" dy="0">0</tspan></text><path d="M334.96316,232.16793c0,-6.87111 5.57013,-12.44125 12.44124,-12.44125c6.87111,0 12.44124,5.57014 12.44124,12.44125c0,6.87111 -5.57013,12.44125 -12.44124,12.44125c-6.87111,0 -12.44124,-5.57014 -12.44124,-12.44125z" fill="#ffc14b" stroke="#ca8900" stroke-width="2" stroke-linecap="butt"/><path d="M410.99299,267.00341c0,-6.87111 5.57013,-12.44124 12.44124,-12.44124c6.87111,0 12.44125,5.57013 12.44125,12.44124c0,6.87111 -5.57014,12.44124 -12.44125,12.44124c-6.87111,0 -12.44124,-5.57013 -12.44124,-12.44124z" fill="#ffc14b" stroke="#ca8900" stroke-width="2" stroke-linecap="butt"/><text transform="translate(343.25732,237.46842) scale(0.41471,0.41471)" font-size="40" xml:space="preserve" fill="#7d5600" fill-rule="nonzero" stroke="none" stroke-width="1" stroke-linecap="butt" stroke-linejoin="miter" stroke-miterlimit="10" stroke-dasharray="" stroke-dashoffset="0" font-family="Times New Roman" font-weight="normal" text-anchor="start" style="mix-blend-mode: normal"><tspan x="0" dy="0">1</tspan></text><text transform="translate(419.56363,272.30391) scale(0.41471,0.41471)" font-size="40" xml:space="preserve" fill="#7d5600" fill-rule="nonzero" stroke="none" stroke-width="1" stroke-linecap="butt" stroke-linejoin="miter" stroke-miterlimit="10" stroke-dasharray="" stroke-dashoffset="0" font-family="Times New Roman" font-weight="normal" text-anchor="start" style="mix-blend-mode: normal"><tspan x="0" dy="0">6</tspan></text><path d="M380.78841,168.00481l-5.18385,-6.42798h22.80894l-5.18385,6.42798z" fill="#33e0ff" stroke="#00aac8" stroke-width="1.5" stroke-linecap="round"/><text transform="translate(383.48402,165.30921) scale(0.41471,0.41471)" font-size="40" xml:space="preserve" fill="#00798e" fill-rule="nonzero" stroke="none" stroke-width="1" stroke-linecap="butt" stroke-linejoin="miter" stroke-miterlimit="10" stroke-dasharray="" stroke-dashoffset="0" font-family="Times New Roman" font-weight="normal" text-anchor="start" style="mix-blend-mode: normal"><tspan x="0" dy="0">0</tspan></text><path d="M302.82329,175.05485l-5.18385,-6.42798h22.80894l-5.18385,6.42798z" fill="#33e0ff" stroke="#00aac8" stroke-width="1.5" stroke-linecap="round"/><text transform="translate(305.51889,172.35925) scale(0.41471,0.41471)" font-size="40" xml:space="preserve" fill="#00798e" fill-rule="nonzero" stroke="none" stroke-width="1" stroke-linecap="butt" stroke-linejoin="miter" stroke-miterlimit="10" stroke-dasharray="" stroke-dashoffset="0" font-family="Times New Roman" font-weight="normal" text-anchor="start" style="mix-blend-mode: normal"><tspan x="0" dy="0">0</tspan></text><path d="M306.55566,251.77585l-5.18385,-6.42798h22.80894l-5.18385,6.42798z" fill="#33e0ff" stroke="#00aac8" stroke-width="1.5" stroke-linecap="round"/><text transform="translate(309.25127,249.08025) scale(0.41471,0.41471)" font-size="40" xml:space="preserve" fill="#00798e" fill-rule="nonzero" stroke="none" stroke-width="1" stroke-linecap="butt" stroke-linejoin="miter" stroke-miterlimit="10" stroke-dasharray="" stroke-dashoffset="0" font-family="Times New Roman" font-weight="normal" text-anchor="start" style="mix-blend-mode: normal"><tspan x="0" dy="0">0</tspan></text><path d="M342.22056,204.91383l-5.18385,-6.42798h22.80895l-5.18385,6.42798z" fill="#33e0ff" stroke="#00aac8" stroke-width="1.5" stroke-linecap="round"/><text transform="translate(344.91617,202.21823) scale(0.41471,0.41471)" font-size="40" xml:space="preserve" fill="#00798e" fill-rule="nonzero" stroke="none" stroke-width="1" stroke-linecap="butt" stroke-linejoin="miter" stroke-miterlimit="10" stroke-dasharray="" stroke-dashoffset="0" font-family="Times New Roman" font-weight="normal" text-anchor="start" style="mix-blend-mode: normal"><tspan x="0" dy="0">0</tspan></text><path d="M381.20312,253.84939l-5.18385,-6.42798h22.80894l-5.18385,6.42798z" fill="#33e0ff" stroke="#00aac8" stroke-width="1.5" stroke-linecap="round"/><text transform="translate(383.89873,251.15378) scale(0.41471,0.41471)" font-size="40" xml:space="preserve" fill="#00798e" fill-rule="nonzero" stroke="none" stroke-width="1" stroke-linecap="butt" stroke-linejoin="miter" stroke-miterlimit="10" stroke-dasharray="" stroke-dashoffset="0" font-family="Times New Roman" font-weight="normal" text-anchor="start" style="mix-blend-mode: normal"><tspan x="0" dy="0">0</tspan></text><path d="M556.64853,164.60085l79.70925,-7.62358" fill="none" stroke="#986800" stroke-width="1.5" stroke-linecap="round"/><path d="M634.28424,266.04551l-76.721,-35.25019" fill="none" stroke="#986800" stroke-width="1.5" stroke-linecap="round"/><path d="M556.31911,229.13648l-74.23275,38.98256" fill="none" stroke="#986800" stroke-width="1.5" stroke-linecap="round"/><path d="M556.64853,164.60085l-1.15883,67.02388" fill="none" stroke="#986800" stroke-width="1.5" stroke-linecap="round"/><path d="M478.35399,176.88326l77.96513,-12.02654" fill="none" stroke="#986800" stroke-width="1.5" stroke-linecap="round"/><path d="M550.92791,90.20927l5.80591,74.23275" fill="none" stroke="#986800" stroke-width="1.5" stroke-linecap="round"/><path d="M469.23041,268.57694c0,-6.87111 5.57013,-12.44124 12.44124,-12.44124c6.87111,0 12.44125,5.57013 12.44125,12.44124c0,6.87111 -5.57014,12.44125 -12.44125,12.44125c-6.87111,0 -12.44124,-5.57014 -12.44124,-12.44125z" fill="#ffc14b" stroke="#ca8900" stroke-width="2" stroke-linecap="butt"/><path d="M465.08334,176.60679c0,-6.87111 5.57014,-12.44125 12.44125,-12.44125c6.87111,0 12.44124,5.57014 12.44124,12.44125c0,6.87111 -5.57013,12.44125 -12.44124,12.44125c-6.87111,0 -12.44125,-5.57014 -12.44125,-12.44125z" fill="#ffc14b" stroke="#ca8900" stroke-width="2" stroke-linecap="butt"/><path d="M622.53418,157.39198c0,-6.87111 5.57013,-12.44124 12.44124,-12.44124c6.87111,0 12.44125,5.57013 12.44125,12.44124c0,6.87111 -5.57014,12.44124 -12.44125,12.44124c-6.87111,0 -12.44124,-5.57013 -12.44124,-12.44124z" fill="#ffc14b" stroke="#ca8900" stroke-width="2" stroke-linecap="butt"/><path d="M538.07197,89.42305c0,-6.87111 5.57013,-12.44124 12.44124,-12.44124c6.87111,0 12.44125,5.57013 12.44125,12.44124c0,6.87111 -5.57014,12.44124 -12.44125,12.44124c-6.87111,0 -12.44124,-5.57013 -12.44124,-12.44124z" fill="#ffc14b" stroke="#ca8900" stroke-width="2" stroke-linecap="butt"/><text transform="translate(477.93928,273.87744) scale(0.41471,0.41471)" font-size="40" xml:space="preserve" fill="#7d5600" fill-rule="nonzero" stroke="none" stroke-width="1" stroke-linecap="butt" stroke-linejoin="miter" stroke-miterlimit="10" stroke-dasharray="" stroke-dashoffset="0" font-family="Times New Roman" font-weight="normal" text-anchor="start" style="mix-blend-mode: normal"><tspan x="0" dy="0">4</tspan></text><text transform="translate(473.79221,181.92887) scale(0.41471,0.41471)" font-size="40" xml:space="preserve" fill="#7d5600" fill-rule="nonzero" stroke="none" stroke-width="1" stroke-linecap="butt" stroke-linejoin="miter" stroke-miterlimit="10" stroke-dasharray="" stroke-dashoffset="0" font-family="Times New Roman" font-weight="normal" text-anchor="start" style="mix-blend-mode: normal"><tspan x="0" dy="0">2</tspan></text><text transform="translate(630.96657,162.32097) scale(0.41471,0.41471)" font-size="40" xml:space="preserve" fill="#7d5600" fill-rule="nonzero" stroke="none" stroke-width="1" stroke-linecap="butt" stroke-linejoin="miter" stroke-miterlimit="10" stroke-dasharray="" stroke-dashoffset="0" font-family="Times New Roman" font-weight="normal" text-anchor="start" style="mix-blend-mode: normal"><tspan x="0" dy="0">3</tspan></text><text transform="translate(546.54846,94.72355) scale(0.41471,0.41471)" font-size="40" xml:space="preserve" fill="#7d5600" fill-rule="nonzero" stroke="none" stroke-width="1" stroke-linecap="butt" stroke-linejoin="miter" stroke-miterlimit="10" stroke-dasharray="" stroke-dashoffset="0" font-family="Times New Roman" font-weight="normal" text-anchor="start" style="mix-blend-mode: normal"><tspan x="0" dy="0">8</tspan></text><path d="M543.46316,231.66793c0,-6.87111 5.57013,-12.44125 12.44124,-12.44125c6.87111,0 12.44124,5.57014 12.44124,12.44125c0,6.87111 -5.57013,12.44125 -12.44124,12.44125c-6.87111,0 -12.44124,-5.57014 -12.44124,-12.44125z" fill="#ffc14b" stroke="#ca8900" stroke-width="2" stroke-linecap="butt"/><path d="M619.49299,266.50341c0,-6.87111 5.57013,-12.44124 12.44124,-12.44124c6.87111,0 12.44125,5.57013 12.44125,12.44124c0,6.87111 -5.57014,12.44124 -12.44125,12.44124c-6.87111,0 -12.44124,-5.57013 -12.44124,-12.44124z" fill="#ffc14b" stroke="#ca8900" stroke-width="2" stroke-linecap="butt"/><text transform="translate(551.75732,236.96842) scale(0.41471,0.41471)" font-size="40" xml:space="preserve" fill="#7d5600" fill-rule="nonzero" stroke="none" stroke-width="1" stroke-linecap="butt" stroke-linejoin="miter" stroke-miterlimit="10" stroke-dasharray="" stroke-dashoffset="0" font-family="Times New Roman" font-weight="normal" text-anchor="start" style="mix-blend-mode: normal"><tspan x="0" dy="0">1</tspan></text><text transform="translate(628.06363,271.80391) scale(0.41471,0.41471)" font-size="40" xml:space="preserve" fill="#7d5600" fill-rule="nonzero" stroke="none" stroke-width="1" stroke-linecap="butt" stroke-linejoin="miter" stroke-miterlimit="10" stroke-dasharray="" stroke-dashoffset="0" font-family="Times New Roman" font-weight="normal" text-anchor="start" style="mix-blend-mode: normal"><tspan x="0" dy="0">6</tspan></text><path d="M550.32329,170.55485l-5.18385,-6.42798h22.80894l-5.18385,6.42798z" fill="#33e0ff" stroke="#00aac8" stroke-width="1.5" stroke-linecap="round"/><text transform="translate(553.01889,167.85925) scale(0.41471,0.41471)" font-size="40" xml:space="preserve" fill="#00798e" fill-rule="nonzero" stroke="none" stroke-width="1" stroke-linecap="butt" stroke-linejoin="miter" stroke-miterlimit="10" stroke-dasharray="" stroke-dashoffset="0" font-family="Times New Roman" font-weight="normal" text-anchor="start" style="mix-blend-mode: normal"><tspan x="0" dy="0">0</tspan></text><path d="M515.05566,251.27585l-5.18385,-6.42798h22.80894l-5.18385,6.42798z" fill="#33e0ff" stroke="#00aac8" stroke-width="1.5" stroke-linecap="round"/><text transform="translate(517.75127,248.58025) scale(0.41471,0.41471)" font-size="40" xml:space="preserve" fill="#00798e" fill-rule="nonzero" stroke="none" stroke-width="1" stroke-linecap="butt" stroke-linejoin="miter" stroke-miterlimit="10" stroke-dasharray="" stroke-dashoffset="0" font-family="Times New Roman" font-weight="normal" text-anchor="start" style="mix-blend-mode: normal"><tspan x="0" dy="0">0</tspan></text><path d="M589.70312,253.34939l-5.18385,-6.42798h22.80894l-5.18385,6.42798z" fill="#33e0ff" stroke="#00aac8" stroke-width="1.5" stroke-linecap="round"/><text transform="translate(592.39873,250.65378) scale(0.41471,0.41471)" font-size="40" xml:space="preserve" fill="#00798e" fill-rule="nonzero" stroke="none" stroke-width="1" stroke-linecap="butt" stroke-linejoin="miter" stroke-miterlimit="10" stroke-dasharray="" stroke-dashoffset="0" font-family="Times New Roman" font-weight="normal" text-anchor="start" style="mix-blend-mode: normal"><tspan x="0" dy="0">0</tspan></text></g></g></svg>