<svg version="1.1" xmlns="http://www.w3.org/2000/svg" xmlns:xlink="http://www.w3.org/1999/xlink" width="357.49998" height="397.83334" viewBox="0,0,357.49998,397.83334"><g transform="translate(-61.20834,19.54167)"><g data-paper-data="{&quot;isPaintingLayer&quot;:true}" fill-rule="nonzero" stroke-linejoin="miter" stroke-miterlimit="10" stroke-dasharray="" stroke-dashoffset="0" style="mix-blend-mode: normal"><path d="M78.04165,37.07032h324" fill="none" stroke="#986800" stroke-width="1.5" stroke-linecap="round"/><path d="M62.54166,38.6224c0,-8.28427 6.71573,-15 15,-15c8.28427,0 15,6.71573 15,15c0,8.28427 -6.71573,15 -15,15c-8.28427,0 -15,-6.71573 -15,-15z" fill="#ffc14b" stroke="#ca8900" stroke-width="2" stroke-linecap="butt"/><path d="M143.20834,38.6224c0,-8.28427 6.71573,-15 15,-15c8.28427,0 15,6.71573 15,15c0,8.28427 -6.71573,15 -15,15c-8.28427,0 -15,-6.71573 -15,-15z" fill="#ff9898" stroke="#c90000" stroke-width="2.5" stroke-linecap="butt"/><path d="M225.04167,38.73699c0,-8.28427 6.71573,-15 15,-15c8.28427,0 15,6.71573 15,15c0,8.28427 -6.71573,15 -15,15c-8.28427,0 -15,-6.71573 -15,-15z" fill="#ffc14b" stroke="#ca8900" stroke-width="2" stroke-linecap="butt"/><path d="M305.875,38.57032c0,-8.28427 6.71573,-15 15,-15c8.28427,0 15,6.71573 15,15c0,8.28427 -6.71573,15 -15,15c-8.28427,0 -15,-6.71573 -15,-15z" fill="#ffc14b" stroke="#ca8900" stroke-width="2" stroke-linecap="butt"/><path d="M387.54167,38.6224c0,-8.28427 6.71573,-15 15,-15c8.28427,0 15,6.71573 15,15c0,8.28427 -6.71573,15 -15,15c-8.28427,0 -15,-6.71573 -15,-15z" fill="#ffc14b" stroke="#ca8900" stroke-width="2" stroke-linecap="butt"/><path d="M109.29167,40.76303l-6.25,-7.75h27.5l-6.25,7.75z" fill="#33e0ff" stroke="#00aac8" stroke-width="1.5" stroke-linecap="round"/><path d="M191.79167,40.26303l-6.25,-7.75h27.5l-6.25,7.75z" fill="#33e0ff" stroke="#00aac8" stroke-width="1.5" stroke-linecap="round"/><path d="M271.29166,40.26303l-6.25,-7.75h27.5l-6.25,7.75z" fill="#33e0ff" stroke="#00aac8" stroke-width="1.5" stroke-linecap="round"/><path d="M351.79167,40.76303l-6.25,-7.75h27.5l-6.25,7.75z" fill="#33e0ff" stroke="#00aac8" stroke-width="1.5" stroke-linecap="round"/><text transform="translate(73.04165,45.01303) scale(0.5,0.5)" font-size="40" xml:space="preserve" fill="#7d5600" fill-rule="nonzero" stroke="none" stroke-width="1" stroke-linecap="butt" stroke-linejoin="miter" stroke-miterlimit="10" stroke-dasharray="" stroke-dashoffset="0" font-family="Times New Roman" font-weight="normal" text-anchor="start" style="mix-blend-mode: normal"><tspan x="0" dy="0">5</tspan></text><text transform="translate(153.54167,45.01304) scale(0.5,0.5)" font-size="40" xml:space="preserve" fill="#8f0000" fill-rule="nonzero" stroke="none" stroke-width="1" stroke-linecap="butt" stroke-linejoin="miter" stroke-miterlimit="10" stroke-dasharray="" stroke-dashoffset="0" font-family="Times New Roman" font-weight="normal" text-anchor="start" style="mix-blend-mode: normal"><tspan x="0" dy="0">3</tspan></text><text transform="translate(235.04167,44.65365) scale(0.5,0.5)" font-size="40" xml:space="preserve" fill="#7d5600" fill-rule="nonzero" stroke="none" stroke-width="1" stroke-linecap="butt" stroke-linejoin="miter" stroke-miterlimit="10" stroke-dasharray="" stroke-dashoffset="0" font-family="Times New Roman" font-weight="normal" text-anchor="start" style="mix-blend-mode: normal"><tspan x="0" dy="0">9</tspan></text><text transform="translate(316.04166,44.51304) scale(0.5,0.5)" font-size="40" xml:space="preserve" fill="#7d5600" fill-rule="nonzero" stroke="none" stroke-width="1" stroke-linecap="butt" stroke-linejoin="miter" stroke-miterlimit="10" stroke-dasharray="" stroke-dashoffset="0" font-family="Times New Roman" font-weight="normal" text-anchor="start" style="mix-blend-mode: normal"><tspan x="0" dy="0">6</tspan></text><text transform="translate(397.54167,44.51304) scale(0.5,0.5)" font-size="40" xml:space="preserve" fill="#7d5600" fill-rule="nonzero" stroke="none" stroke-width="1" stroke-linecap="butt" stroke-linejoin="miter" stroke-miterlimit="10" stroke-dasharray="" stroke-dashoffset="0" font-family="Times New Roman" font-weight="normal" text-anchor="start" style="mix-blend-mode: normal"><tspan x="0" dy="0">4</tspan></text><path d="M401.95832,-3.375h-324" fill="none" stroke="#986800" stroke-width="1.5" stroke-linecap="round"/><path d="M62.45834,-3.48959c0,-8.28427 6.71573,-15 15,-15c8.28427,0 15,6.71573 15,15c0,8.28427 -6.71573,15 -15,15c-8.28427,0 -15,-6.71573 -15,-15z" fill="#ffc14b" stroke="#ca8900" stroke-width="2" stroke-linecap="butt"/><path d="M143.125,-3.48959c0,-8.28427 6.71573,-15 15,-15c8.28427,0 15,6.71573 15,15c0,8.28427 -6.71573,15 -15,15c-8.28427,0 -15,-6.71573 -15,-15z" fill="#ffc14b" stroke="#ca8900" stroke-width="2" stroke-linecap="butt"/><path d="M224.95833,-3.375c0,-8.28427 6.71573,-15 15,-15c8.28427,0 15,6.71573 15,15c0,8.28427 -6.71573,15 -15,15c-8.28427,0 -15,-6.71573 -15,-15z" fill="#ffc14b" stroke="#ca8900" stroke-width="2" stroke-linecap="butt"/><path d="M305.79166,-3.54167c0,-8.28427 6.71573,-15 15,-15c8.28427,0 15,6.71573 15,15c0,8.28427 -6.71573,15 -15,15c-8.28427,0 -15,-6.71573 -15,-15z" fill="#ffc14b" stroke="#ca8900" stroke-width="2" stroke-linecap="butt"/><path d="M387.45832,-3.48959c0,-8.28427 6.71573,-15 15,-15c8.28427,0 15,6.71573 15,15c0,8.28427 -6.71573,15 -15,15c-8.28427,0 -15,-6.71573 -15,-15z" fill="#ffc14b" stroke="#ca8900" stroke-width="2" stroke-linecap="butt"/><path d="M109.20834,-1.34896l-6.25,-7.75h27.5l-6.25,7.75z" fill="#33e0ff" stroke="#00aac8" stroke-width="1.5" stroke-linecap="round"/><path d="M191.70834,-1.84896l-6.25,-7.75h27.5l-6.25,7.75z" fill="#33e0ff" stroke="#00aac8" stroke-width="1.5" stroke-linecap="round"/><path d="M271.20833,-1.84896l-6.25,-7.75h27.5l-6.25,7.75z" fill="#33e0ff" stroke="#00aac8" stroke-width="1.5" stroke-linecap="round"/><path d="M351.70832,-1.34896l-6.25,-7.75h27.5l-6.25,7.75z" fill="#33e0ff" stroke="#00aac8" stroke-width="1.5" stroke-linecap="round"/><text transform="translate(72.95834,2.90104) scale(0.5,0.5)" font-size="40" xml:space="preserve" fill="#7d5600" fill-rule="nonzero" stroke="none" stroke-width="1" stroke-linecap="butt" stroke-linejoin="miter" stroke-miterlimit="10" stroke-dasharray="" stroke-dashoffset="0" font-family="Times New Roman" font-weight="normal" text-anchor="start" style="mix-blend-mode: normal"><tspan x="0" dy="0">5</tspan></text><text transform="translate(152.95834,2.90105) scale(0.5,0.5)" font-size="40" xml:space="preserve" fill="#7d5600" fill-rule="nonzero" stroke="none" stroke-width="1" stroke-linecap="butt" stroke-linejoin="miter" stroke-miterlimit="10" stroke-dasharray="" stroke-dashoffset="0" font-family="Times New Roman" font-weight="normal" text-anchor="start" style="mix-blend-mode: normal"><tspan x="0" dy="0">3</tspan></text><text transform="translate(234.95834,2.54166) scale(0.5,0.5)" font-size="40" xml:space="preserve" fill="#7d5600" fill-rule="nonzero" stroke="none" stroke-width="1" stroke-linecap="butt" stroke-linejoin="miter" stroke-miterlimit="10" stroke-dasharray="" stroke-dashoffset="0" font-family="Times New Roman" font-weight="normal" text-anchor="start" style="mix-blend-mode: normal"><tspan x="0" dy="0">9</tspan></text><text transform="translate(315.95833,2.40105) scale(0.5,0.5)" font-size="40" xml:space="preserve" fill="#7d5600" fill-rule="nonzero" stroke="none" stroke-width="1" stroke-linecap="butt" stroke-linejoin="miter" stroke-miterlimit="10" stroke-dasharray="" stroke-dashoffset="0" font-family="Times New Roman" font-weight="normal" text-anchor="start" style="mix-blend-mode: normal"><tspan x="0" dy="0">6</tspan></text><text transform="translate(397.45832,2.40105) scale(0.5,0.5)" font-size="40" xml:space="preserve" fill="#7d5600" fill-rule="nonzero" stroke="none" stroke-width="1" stroke-linecap="butt" stroke-linejoin="miter" stroke-miterlimit="10" stroke-dasharray="" stroke-dashoffset="0" font-family="Times New Roman" font-weight="normal" text-anchor="start" style="mix-blend-mode: normal"><tspan x="0" dy="0">4</tspan></text><text transform="translate(111.54167,37.51303) scale(0.5,0.5)" font-size="40" xml:space="preserve" fill="#00798e" fill-rule="nonzero" stroke="none" stroke-width="1" stroke-linecap="butt" stroke-linejoin="miter" stroke-miterlimit="10" stroke-dasharray="" stroke-dashoffset="0" font-family="Times New Roman" font-weight="normal" text-anchor="start" style="mix-blend-mode: normal"><tspan x="0" dy="0">3</tspan></text><text transform="translate(195.04167,37.01303) scale(0.5,0.5)" font-size="40" xml:space="preserve" fill="#00798e" fill-rule="nonzero" stroke="none" stroke-width="1" stroke-linecap="butt" stroke-linejoin="miter" stroke-miterlimit="10" stroke-dasharray="" stroke-dashoffset="0" font-family="Times New Roman" font-weight="normal" text-anchor="start" style="mix-blend-mode: normal"><tspan x="0" dy="0">3</tspan></text><text transform="translate(274.04166,38.01303) scale(0.5,0.5)" font-size="40" xml:space="preserve" fill="#00798e" fill-rule="nonzero" stroke="none" stroke-width="1" stroke-linecap="butt" stroke-linejoin="miter" stroke-miterlimit="10" stroke-dasharray="" stroke-dashoffset="0" font-family="Times New Roman" font-weight="normal" text-anchor="start" style="mix-blend-mode: normal"><tspan x="0" dy="0">3</tspan></text><text transform="translate(353.54167,38.01303) scale(0.5,0.5)" font-size="40" xml:space="preserve" fill="#00798e" fill-rule="nonzero" stroke="none" stroke-width="1" stroke-linecap="butt" stroke-linejoin="miter" stroke-miterlimit="10" stroke-dasharray="" stroke-dashoffset="0" font-family="Times New Roman" font-weight="normal" text-anchor="start" style="mix-blend-mode: normal"><tspan x="0" dy="0">3</tspan></text><path d="M401.95832,80.79167h-324" fill="none" stroke="#986800" stroke-width="1.5" stroke-linecap="round"/><path d="M62.45834,80.67708c0,-8.28427 6.71573,-15 15,-15c8.28427,0 15,6.71573 15,15c0,8.28427 -6.71573,15 -15,15c-8.28427,0 -15,-6.71573 -15,-15z" fill="#ffc14b" stroke="#ca8900" stroke-width="2" stroke-linecap="butt"/><path d="M143.125,80.67708c0,-8.28427 6.71573,-15 15,-15c8.28427,0 15,6.71573 15,15c0,8.28427 -6.71573,15 -15,15c-8.28427,0 -15,-6.71573 -15,-15z" fill="#ffc14b" stroke="#ca8900" stroke-width="2" stroke-linecap="butt"/><path d="M224.95833,80.79167c0,-8.28427 6.71573,-15 15,-15c8.28427,0 15,6.71573 15,15c0,8.28427 -6.71573,15 -15,15c-8.28427,0 -15,-6.71573 -15,-15z" fill="#ffc14b" stroke="#ca8900" stroke-width="2" stroke-linecap="butt"/><path d="M305.79166,80.625c0,-8.28427 6.71573,-15 15,-15c8.28427,0 15,6.71573 15,15c0,8.28427 -6.71573,15 -15,15c-8.28427,0 -15,-6.71573 -15,-15z" fill="#ffc14b" stroke="#ca8900" stroke-width="2" stroke-linecap="butt"/><path d="M387.45832,80.67708c0,-8.28427 6.71573,-15 15,-15c8.28427,0 15,6.71573 15,15c0,8.28427 -6.71573,15 -15,15c-8.28427,0 -15,-6.71573 -15,-15z" fill="#ffc14b" stroke="#ca8900" stroke-width="2" stroke-linecap="butt"/><path d="M109.20834,82.81771l-6.25,-7.75h27.5l-6.25,7.75z" fill="#33e0ff" stroke="#00aac8" stroke-width="1.5" stroke-linecap="round"/><path d="M191.70834,82.31771l-6.25,-7.75h27.5l-6.25,7.75z" fill="#33e0ff" stroke="#00aac8" stroke-width="1.5" stroke-linecap="round"/><path d="M271.20833,82.31771l-6.25,-7.75h27.5l-6.25,7.75z" fill="#33e0ff" stroke="#00aac8" stroke-width="1.5" stroke-linecap="round"/><path d="M351.70832,82.81771l-6.25,-7.75h27.5l-6.25,7.75z" fill="#33e0ff" stroke="#00aac8" stroke-width="1.5" stroke-linecap="round"/><text transform="translate(72.95834,87.06771) scale(0.5,0.5)" font-size="40" xml:space="preserve" fill="#7d5600" fill-rule="nonzero" stroke="none" stroke-width="1" stroke-linecap="butt" stroke-linejoin="miter" stroke-miterlimit="10" stroke-dasharray="" stroke-dashoffset="0" font-family="Times New Roman" font-weight="normal" text-anchor="start" style="mix-blend-mode: normal"><tspan x="0" dy="0">2</tspan></text><text transform="translate(152.95834,87.06772) scale(0.5,0.5)" font-size="40" xml:space="preserve" fill="#7d5600" fill-rule="nonzero" stroke="none" stroke-width="1" stroke-linecap="butt" stroke-linejoin="miter" stroke-miterlimit="10" stroke-dasharray="" stroke-dashoffset="0" font-family="Times New Roman" font-weight="normal" text-anchor="start" style="mix-blend-mode: normal"><tspan x="0" dy="0">0</tspan></text><text transform="translate(234.95834,86.70833) scale(0.5,0.5)" font-size="40" xml:space="preserve" fill="#7d5600" fill-rule="nonzero" stroke="none" stroke-width="1" stroke-linecap="butt" stroke-linejoin="miter" stroke-miterlimit="10" stroke-dasharray="" stroke-dashoffset="0" font-family="Times New Roman" font-weight="normal" text-anchor="start" style="mix-blend-mode: normal"><tspan x="0" dy="0">6</tspan></text><text transform="translate(315.95833,86.56772) scale(0.5,0.5)" font-size="40" xml:space="preserve" fill="#7d5600" fill-rule="nonzero" stroke="none" stroke-width="1" stroke-linecap="butt" stroke-linejoin="miter" stroke-miterlimit="10" stroke-dasharray="" stroke-dashoffset="0" font-family="Times New Roman" font-weight="normal" text-anchor="start" style="mix-blend-mode: normal"><tspan x="0" dy="0">3</tspan></text><text transform="translate(397.45832,86.56772) scale(0.5,0.5)" font-size="40" xml:space="preserve" fill="#7d5600" fill-rule="nonzero" stroke="none" stroke-width="1" stroke-linecap="butt" stroke-linejoin="miter" stroke-miterlimit="10" stroke-dasharray="" stroke-dashoffset="0" font-family="Times New Roman" font-weight="normal" text-anchor="start" style="mix-blend-mode: normal"><tspan x="0" dy="0">1</tspan></text><text transform="translate(111.45834,79.56771) scale(0.5,0.5)" font-size="40" xml:space="preserve" fill="#00798e" fill-rule="nonzero" stroke="none" stroke-width="1" stroke-linecap="butt" stroke-linejoin="miter" stroke-miterlimit="10" stroke-dasharray="" stroke-dashoffset="0" font-family="Times New Roman" font-weight="normal" text-anchor="start" style="mix-blend-mode: normal"><tspan x="0" dy="0">0</tspan></text><text transform="translate(194.45834,79.06771) scale(0.5,0.5)" font-size="40" xml:space="preserve" fill="#00798e" fill-rule="nonzero" stroke="none" stroke-width="1" stroke-linecap="butt" stroke-linejoin="miter" stroke-miterlimit="10" stroke-dasharray="" stroke-dashoffset="0" font-family="Times New Roman" font-weight="normal" text-anchor="start" style="mix-blend-mode: normal"><tspan x="0" dy="0">0</tspan></text><text transform="translate(273.95833,80.06771) scale(0.5,0.5)" font-size="40" xml:space="preserve" fill="#00798e" fill-rule="nonzero" stroke="none" stroke-width="1" stroke-linecap="butt" stroke-linejoin="miter" stroke-miterlimit="10" stroke-dasharray="" stroke-dashoffset="0" font-family="Times New Roman" font-weight="normal" text-anchor="start" style="mix-blend-mode: normal"><tspan x="0" dy="0">0</tspan></text><text transform="translate(353.45832,80.06771) scale(0.5,0.5)" font-size="40" xml:space="preserve" fill="#00798e" fill-rule="nonzero" stroke="none" stroke-width="1" stroke-linecap="butt" stroke-linejoin="miter" stroke-miterlimit="10" stroke-dasharray="" stroke-dashoffset="0" font-family="Times New Roman" font-weight="normal" text-anchor="start" style="mix-blend-mode: normal"><tspan x="0" dy="0">0</tspan></text><text transform="translate(105.05859,372.54167) scale(0.5,0.5)" font-size="40" xml:space="preserve" fill="#8f0000" fill-rule="nonzero" stroke="none" stroke-width="1" stroke-linecap="butt" stroke-linejoin="miter" stroke-miterlimit="10" stroke-dasharray="" stroke-dashoffset="0" font-family="Times New Roman" font-weight="normal" text-anchor="start" style="mix-blend-mode: normal"><tspan x="0" dy="0">Answer = 12 + 3 + 3 + 3 + 6 = 27</tspan></text><path d="M401.95832,122.125h-324" fill="none" stroke="#986800" stroke-width="1.5" stroke-linecap="round"/><path d="M62.45834,122.01041c0,-8.28427 6.71573,-15 15,-15c8.28427,0 15,6.71573 15,15c0,8.28427 -6.71573,15 -15,15c-8.28427,0 -15,-6.71573 -15,-15z" fill="#ffc14b" stroke="#ca8900" stroke-width="2" stroke-linecap="butt"/><path d="M224.95833,122.125c0,-8.28427 6.71573,-15 15,-15c8.28427,0 15,6.71573 15,15c0,8.28427 -6.71573,15 -15,15c-8.28427,0 -15,-6.71573 -15,-15z" fill="#ffc14b" stroke="#ca8900" stroke-width="2" stroke-linecap="butt"/><path d="M305.79166,121.95833c0,-8.28427 6.71573,-15 15,-15c8.28427,0 15,6.71573 15,15c0,8.28427 -6.71573,15 -15,15c-8.28427,0 -15,-6.71573 -15,-15z" fill="#ffc14b" stroke="#ca8900" stroke-width="2" stroke-linecap="butt"/><path d="M387.45832,122.01041c0,-8.28427 6.71573,-15 15,-15c8.28427,0 15,6.71573 15,15c0,8.28427 -6.71573,15 -15,15c-8.28427,0 -15,-6.71573 -15,-15z" fill="#ffc14b" stroke="#ca8900" stroke-width="2" stroke-linecap="butt"/><path d="M150.70834,124.15104l-6.25,-7.75h27.5l-6.25,7.75z" fill="#33e0ff" stroke="#00aac8" stroke-width="1.5" stroke-linecap="round"/><path d="M271.20833,123.65104l-6.25,-7.75h27.5l-6.25,7.75z" fill="#33e0ff" stroke="#00aac8" stroke-width="1.5" stroke-linecap="round"/><path d="M351.70832,124.15104l-6.25,-7.75h27.5l-6.25,7.75z" fill="#33e0ff" stroke="#00aac8" stroke-width="1.5" stroke-linecap="round"/><text transform="translate(72.95834,128.40104) scale(0.5,0.5)" font-size="40" xml:space="preserve" fill="#7d5600" fill-rule="nonzero" stroke="none" stroke-width="1" stroke-linecap="butt" stroke-linejoin="miter" stroke-miterlimit="10" stroke-dasharray="" stroke-dashoffset="0" font-family="Times New Roman" font-weight="normal" text-anchor="start" style="mix-blend-mode: normal"><tspan x="0" dy="0">2</tspan></text><text transform="translate(234.95834,128.04166) scale(0.5,0.5)" font-size="40" xml:space="preserve" fill="#7d5600" fill-rule="nonzero" stroke="none" stroke-width="1" stroke-linecap="butt" stroke-linejoin="miter" stroke-miterlimit="10" stroke-dasharray="" stroke-dashoffset="0" font-family="Times New Roman" font-weight="normal" text-anchor="start" style="mix-blend-mode: normal"><tspan x="0" dy="0">6</tspan></text><text transform="translate(315.95833,127.90105) scale(0.5,0.5)" font-size="40" xml:space="preserve" fill="#7d5600" fill-rule="nonzero" stroke="none" stroke-width="1" stroke-linecap="butt" stroke-linejoin="miter" stroke-miterlimit="10" stroke-dasharray="" stroke-dashoffset="0" font-family="Times New Roman" font-weight="normal" text-anchor="start" style="mix-blend-mode: normal"><tspan x="0" dy="0">3</tspan></text><text transform="translate(397.45832,127.90105) scale(0.5,0.5)" font-size="40" xml:space="preserve" fill="#7d5600" fill-rule="nonzero" stroke="none" stroke-width="1" stroke-linecap="butt" stroke-linejoin="miter" stroke-miterlimit="10" stroke-dasharray="" stroke-dashoffset="0" font-family="Times New Roman" font-weight="normal" text-anchor="start" style="mix-blend-mode: normal"><tspan x="0" dy="0">1</tspan></text><text transform="translate(152.95834,120.90104) scale(0.5,0.5)" font-size="40" xml:space="preserve" fill="#00798e" fill-rule="nonzero" stroke="none" stroke-width="1" stroke-linecap="butt" stroke-linejoin="miter" stroke-miterlimit="10" stroke-dasharray="" stroke-dashoffset="0" font-family="Times New Roman" font-weight="normal" text-anchor="start" style="mix-blend-mode: normal"><tspan x="0" dy="0">0</tspan></text><text transform="translate(273.95833,121.40104) scale(0.5,0.5)" font-size="40" xml:space="preserve" fill="#00798e" fill-rule="nonzero" stroke="none" stroke-width="1" stroke-linecap="butt" stroke-linejoin="miter" stroke-miterlimit="10" stroke-dasharray="" stroke-dashoffset="0" font-family="Times New Roman" font-weight="normal" text-anchor="start" style="mix-blend-mode: normal"><tspan x="0" dy="0">0</tspan></text><text transform="translate(353.45832,121.40104) scale(0.5,0.5)" font-size="40" xml:space="preserve" fill="#00798e" fill-rule="nonzero" stroke="none" stroke-width="1" stroke-linecap="butt" stroke-linejoin="miter" stroke-miterlimit="10" stroke-dasharray="" stroke-dashoffset="0" font-family="Times New Roman" font-weight="normal" text-anchor="start" style="mix-blend-mode: normal"><tspan x="0" dy="0">0</tspan></text><path d="M401.95832,164.19167h-324" fill="none" stroke="#986800" stroke-width="1.5" stroke-linecap="round"/><path d="M62.45834,164.07708c0,-8.28427 6.71573,-15 15,-15c8.28427,0 15,6.71573 15,15c0,8.28427 -6.71573,15 -15,15c-8.28427,0 -15,-6.71573 -15,-15z" fill="#ffc14b" stroke="#ca8900" stroke-width="2" stroke-linecap="butt"/><path d="M224.95833,164.19167c0,-8.28427 6.71573,-15 15,-15c8.28427,0 15,6.71573 15,15c0,8.28427 -6.71573,15 -15,15c-8.28427,0 -15,-6.71573 -15,-15z" fill="#ffc14b" stroke="#ca8900" stroke-width="2" stroke-linecap="butt"/><path d="M305.79166,164.025c0,-8.28427 6.71573,-15 15,-15c8.28427,0 15,6.71573 15,15c0,8.28427 -6.71573,15 -15,15c-8.28427,0 -15,-6.71573 -15,-15z" fill="#ffc14b" stroke="#ca8900" stroke-width="2" stroke-linecap="butt"/><path d="M387.45832,164.07708c0,-8.28427 6.71573,-15 15,-15c8.28427,0 15,6.71573 15,15c0,8.28427 -6.71573,15 -15,15c-8.28427,0 -15,-6.71573 -15,-15z" fill="#ff9898" stroke="#c90000" stroke-width="2.5" stroke-linecap="butt"/><path d="M150.70834,166.21771l-6.25,-7.75h27.5l-6.25,7.75z" fill="#33e0ff" stroke="#00aac8" stroke-width="1.5" stroke-linecap="round"/><path d="M271.20833,165.71771l-6.25,-7.75h27.5l-6.25,7.75z" fill="#33e0ff" stroke="#00aac8" stroke-width="1.5" stroke-linecap="round"/><path d="M351.70832,166.21771l-6.25,-7.75h27.5l-6.25,7.75z" fill="#33e0ff" stroke="#00aac8" stroke-width="1.5" stroke-linecap="round"/><text transform="translate(72.95834,170.46771) scale(0.5,0.5)" font-size="40" xml:space="preserve" fill="#7d5600" fill-rule="nonzero" stroke="none" stroke-width="1" stroke-linecap="butt" stroke-linejoin="miter" stroke-miterlimit="10" stroke-dasharray="" stroke-dashoffset="0" font-family="Times New Roman" font-weight="normal" text-anchor="start" style="mix-blend-mode: normal"><tspan x="0" dy="0">2</tspan></text><text transform="translate(234.95834,170.10833) scale(0.5,0.5)" font-size="40" xml:space="preserve" fill="#7d5600" fill-rule="nonzero" stroke="none" stroke-width="1" stroke-linecap="butt" stroke-linejoin="miter" stroke-miterlimit="10" stroke-dasharray="" stroke-dashoffset="0" font-family="Times New Roman" font-weight="normal" text-anchor="start" style="mix-blend-mode: normal"><tspan x="0" dy="0">6</tspan></text><text transform="translate(315.95833,169.96772) scale(0.5,0.5)" font-size="40" xml:space="preserve" fill="#7d5600" fill-rule="nonzero" stroke="none" stroke-width="1" stroke-linecap="butt" stroke-linejoin="miter" stroke-miterlimit="10" stroke-dasharray="" stroke-dashoffset="0" font-family="Times New Roman" font-weight="normal" text-anchor="start" style="mix-blend-mode: normal"><tspan x="0" dy="0">3</tspan></text><text transform="translate(397.45832,169.96772) scale(0.5,0.5)" font-size="40" xml:space="preserve" fill="#8f0000" fill-rule="nonzero" stroke="none" stroke-width="1" stroke-linecap="butt" stroke-linejoin="miter" stroke-miterlimit="10" stroke-dasharray="" stroke-dashoffset="0" font-family="Times New Roman" font-weight="normal" text-anchor="start" style="mix-blend-mode: normal"><tspan x="0" dy="0">1</tspan></text><text transform="translate(152.95834,162.96771) scale(0.5,0.5)" font-size="40" xml:space="preserve" fill="#00798e" fill-rule="nonzero" stroke="none" stroke-width="1" stroke-linecap="butt" stroke-linejoin="miter" stroke-miterlimit="10" stroke-dasharray="" stroke-dashoffset="0" font-family="Times New Roman" font-weight="normal" text-anchor="start" style="mix-blend-mode: normal"><tspan x="0" dy="0">1</tspan></text><text transform="translate(273.95833,163.46771) scale(0.5,0.5)" font-size="40" xml:space="preserve" fill="#00798e" fill-rule="nonzero" stroke="none" stroke-width="1" stroke-linecap="butt" stroke-linejoin="miter" stroke-miterlimit="10" stroke-dasharray="" stroke-dashoffset="0" font-family="Times New Roman" font-weight="normal" text-anchor="start" style="mix-blend-mode: normal"><tspan x="0" dy="0">1</tspan></text><text transform="translate(353.45832,163.46771) scale(0.5,0.5)" font-size="40" xml:space="preserve" fill="#00798e" fill-rule="nonzero" stroke="none" stroke-width="1" stroke-linecap="butt" stroke-linejoin="miter" stroke-miterlimit="10" stroke-dasharray="" stroke-dashoffset="0" font-family="Times New Roman" font-weight="normal" text-anchor="start" style="mix-blend-mode: normal"><tspan x="0" dy="0">1</tspan></text><path d="M77.95832,206.125h324" fill="none" stroke="#986800" stroke-width="1.5" stroke-linecap="round"/><path d="M62.45834,206.01041c0,-8.28427 6.71573,-15 15,-15c8.28427,0 15,6.71573 15,15c0,8.28427 -6.71573,15 -15,15c-8.28427,0 -15,-6.71573 -15,-15z" fill="#ff9898" stroke="#cd0a0a" stroke-width="2.5" stroke-linecap="butt"/><path d="M224.95833,206.125c0,-8.28427 6.71573,-15 15,-15c8.28427,0 15,6.71573 15,15c0,8.28427 -6.71573,15 -15,15c-8.28427,0 -15,-6.71573 -15,-15z" fill="#ffc14b" stroke="#ca8900" stroke-width="2" stroke-linecap="butt"/><path d="M305.79166,205.95833c0,-8.28427 6.71573,-15 15,-15c8.28427,0 15,6.71573 15,15c0,8.28427 -6.71573,15 -15,15c-8.28427,0 -15,-6.71573 -15,-15z" fill="#ffc14b" stroke="#ca8900" stroke-width="2" stroke-linecap="butt"/><path d="M150.70834,208.15104l-6.25,-7.75h27.5l-6.25,7.75z" fill="#33e0ff" stroke="#00aac8" stroke-width="1.5" stroke-linecap="round"/><path d="M271.20833,207.65104l-6.25,-7.75h27.5l-6.25,7.75z" fill="#33e0ff" stroke="#00aac8" stroke-width="1.5" stroke-linecap="round"/><path d="M351.70832,208.15104l-6.25,-7.75h27.5l-6.25,7.75z" fill="#33e0ff" stroke="#00aac8" stroke-width="1.5" stroke-linecap="round"/><text transform="translate(72.45834,211.90104) scale(0.5,0.5)" font-size="40" xml:space="preserve" fill="#8f0000" fill-rule="nonzero" stroke="none" stroke-width="1" stroke-linecap="butt" stroke-linejoin="miter" stroke-miterlimit="10" stroke-dasharray="" stroke-dashoffset="0" font-family="Times New Roman" font-weight="normal" text-anchor="start" style="mix-blend-mode: normal"><tspan x="0" dy="0">1</tspan></text><text transform="translate(234.95834,212.04166) scale(0.5,0.5)" font-size="40" xml:space="preserve" fill="#7d5600" fill-rule="nonzero" stroke="none" stroke-width="1" stroke-linecap="butt" stroke-linejoin="miter" stroke-miterlimit="10" stroke-dasharray="" stroke-dashoffset="0" font-family="Times New Roman" font-weight="normal" text-anchor="start" style="mix-blend-mode: normal"><tspan x="0" dy="0">5</tspan></text><text transform="translate(315.95833,211.90105) scale(0.5,0.5)" font-size="40" xml:space="preserve" fill="#7d5600" fill-rule="nonzero" stroke="none" stroke-width="1" stroke-linecap="butt" stroke-linejoin="miter" stroke-miterlimit="10" stroke-dasharray="" stroke-dashoffset="0" font-family="Times New Roman" font-weight="normal" text-anchor="start" style="mix-blend-mode: normal"><tspan x="0" dy="0">2</tspan></text><text transform="translate(152.95834,204.90104) scale(0.5,0.5)" font-size="40" xml:space="preserve" fill="#00798e" fill-rule="nonzero" stroke="none" stroke-width="1" stroke-linecap="butt" stroke-linejoin="miter" stroke-miterlimit="10" stroke-dasharray="" stroke-dashoffset="0" font-family="Times New Roman" font-weight="normal" text-anchor="start" style="mix-blend-mode: normal"><tspan x="0" dy="0">0</tspan></text><text transform="translate(273.95833,205.40104) scale(0.5,0.5)" font-size="40" xml:space="preserve" fill="#00798e" fill-rule="nonzero" stroke="none" stroke-width="1" stroke-linecap="butt" stroke-linejoin="miter" stroke-miterlimit="10" stroke-dasharray="" stroke-dashoffset="0" font-family="Times New Roman" font-weight="normal" text-anchor="start" style="mix-blend-mode: normal"><tspan x="0" dy="0">0</tspan></text><text transform="translate(353.45832,205.40104) scale(0.5,0.5)" font-size="40" xml:space="preserve" fill="#00798e" fill-rule="nonzero" stroke="none" stroke-width="1" stroke-linecap="butt" stroke-linejoin="miter" stroke-miterlimit="10" stroke-dasharray="" stroke-dashoffset="0" font-family="Times New Roman" font-weight="normal" text-anchor="start" style="mix-blend-mode: normal"><tspan x="0" dy="0">0</tspan></text><path d="M401.95832,248.625h-324" fill="none" stroke="#986800" stroke-width="1.5" stroke-linecap="round"/><path d="M224.95833,248.625c0,-8.28427 6.71573,-15 15,-15c8.28427,0 15,6.71573 15,15c0,8.28427 -6.71573,15 -15,15c-8.28427,0 -15,-6.71573 -15,-15z" fill="#ffc14b" stroke="#ca8900" stroke-width="2" stroke-linecap="butt"/><path d="M305.79166,248.45833c0,-8.28427 6.71573,-15 15,-15c8.28427,0 15,6.71573 15,15c0,8.28427 -6.71573,15 -15,15c-8.28427,0 -15,-6.71573 -15,-15z" fill="#ff9898" stroke="#cd0a0a" stroke-width="2.5" stroke-linecap="butt"/><path d="M150.70834,250.65104l-6.25,-7.75h27.5l-6.25,7.75z" fill="#33e0ff" stroke="#00aac8" stroke-width="1.5" stroke-linecap="round"/><path d="M271.20833,250.15104l-6.25,-7.75h27.5l-6.25,7.75z" fill="#33e0ff" stroke="#00aac8" stroke-width="1.5" stroke-linecap="round"/><path d="M351.70832,250.65104l-6.25,-7.75h27.5l-6.25,7.75z" fill="#33e0ff" stroke="#00aac8" stroke-width="1.5" stroke-linecap="round"/><text transform="translate(234.95834,254.54166) scale(0.5,0.5)" font-size="40" xml:space="preserve" fill="#7d5600" fill-rule="nonzero" stroke="none" stroke-width="1" stroke-linecap="butt" stroke-linejoin="miter" stroke-miterlimit="10" stroke-dasharray="" stroke-dashoffset="0" font-family="Times New Roman" font-weight="normal" text-anchor="start" style="mix-blend-mode: normal"><tspan x="0" dy="0">4</tspan></text><text transform="translate(315.95833,254.40105) scale(0.5,0.5)" font-size="40" xml:space="preserve" fill="#8f0000" fill-rule="nonzero" stroke="none" stroke-width="1" stroke-linecap="butt" stroke-linejoin="miter" stroke-miterlimit="10" stroke-dasharray="" stroke-dashoffset="0" font-family="Times New Roman" font-weight="normal" text-anchor="start" style="mix-blend-mode: normal"><tspan x="0" dy="0">1</tspan></text><text transform="translate(152.95834,247.40104) scale(0.5,0.5)" font-size="40" xml:space="preserve" fill="#00798e" fill-rule="nonzero" stroke="none" stroke-width="1" stroke-linecap="butt" stroke-linejoin="miter" stroke-miterlimit="10" stroke-dasharray="" stroke-dashoffset="0" font-family="Times New Roman" font-weight="normal" text-anchor="start" style="mix-blend-mode: normal"><tspan x="0" dy="0">0</tspan></text><text transform="translate(273.95833,247.90104) scale(0.5,0.5)" font-size="40" xml:space="preserve" fill="#00798e" fill-rule="nonzero" stroke="none" stroke-width="1" stroke-linecap="butt" stroke-linejoin="miter" stroke-miterlimit="10" stroke-dasharray="" stroke-dashoffset="0" font-family="Times New Roman" font-weight="normal" text-anchor="start" style="mix-blend-mode: normal"><tspan x="0" dy="0">0</tspan></text><text transform="translate(353.45832,247.90104) scale(0.5,0.5)" font-size="40" xml:space="preserve" fill="#00798e" fill-rule="nonzero" stroke="none" stroke-width="1" stroke-linecap="butt" stroke-linejoin="miter" stroke-miterlimit="10" stroke-dasharray="" stroke-dashoffset="0" font-family="Times New Roman" font-weight="normal" text-anchor="start" style="mix-blend-mode: normal"><tspan x="0" dy="0">0</tspan></text><path d="M401.95832,290.45834h-324" fill="none" stroke="#986800" stroke-width="1.5" stroke-linecap="round"/><path d="M224.95833,290.45834c0,-8.28427 6.71573,-15 15,-15c8.28427,0 15,6.71573 15,15c0,8.28427 -6.71573,15 -15,15c-8.28427,0 -15,-6.71573 -15,-15z" fill="#ffc14b" stroke="#ca8900" stroke-width="2" stroke-linecap="butt"/><path d="M150.70834,292.48438l-6.25,-7.75h27.5l-6.25,7.75z" fill="#33e0ff" stroke="#00aac8" stroke-width="1.5" stroke-linecap="round"/><path d="M313.20833,291.98438l-6.25,-7.75h27.5l-6.25,7.75z" fill="#33e0ff" stroke="#00aac8" stroke-width="1.5" stroke-linecap="round"/><text transform="translate(234.95834,296.375) scale(0.5,0.5)" font-size="40" xml:space="preserve" fill="#7d5600" fill-rule="nonzero" stroke="none" stroke-width="1" stroke-linecap="butt" stroke-linejoin="miter" stroke-miterlimit="10" stroke-dasharray="" stroke-dashoffset="0" font-family="Times New Roman" font-weight="normal" text-anchor="start" style="mix-blend-mode: normal"><tspan x="0" dy="0">3</tspan></text><text transform="translate(152.95834,289.23438) scale(0.5,0.5)" font-size="40" xml:space="preserve" fill="#00798e" fill-rule="nonzero" stroke="none" stroke-width="1" stroke-linecap="butt" stroke-linejoin="miter" stroke-miterlimit="10" stroke-dasharray="" stroke-dashoffset="0" font-family="Times New Roman" font-weight="normal" text-anchor="start" style="mix-blend-mode: normal"><tspan x="0" dy="0">0</tspan></text><text transform="translate(315.95833,289.73438) scale(0.5,0.5)" font-size="40" xml:space="preserve" fill="#00798e" fill-rule="nonzero" stroke="none" stroke-width="1" stroke-linecap="butt" stroke-linejoin="miter" stroke-miterlimit="10" stroke-dasharray="" stroke-dashoffset="0" font-family="Times New Roman" font-weight="normal" text-anchor="start" style="mix-blend-mode: normal"><tspan x="0" dy="0">0</tspan></text><path d="M401.95832,332.625h-324" fill="none" stroke="#986800" stroke-width="1.5" stroke-linecap="round"/><path d="M224.95833,332.625c0,-8.28427 6.71573,-15 15,-15c8.28427,0 15,6.71573 15,15c0,8.28427 -6.71573,15 -15,15c-8.28427,0 -15,-6.71573 -15,-15z" fill="#ffc14b" stroke="#ca8900" stroke-width="2" stroke-linecap="butt"/><path d="M150.70834,334.65104l-6.25,-7.75h27.5l-6.25,7.75z" fill="#33e0ff" stroke="#00aac8" stroke-width="1.5" stroke-linecap="round"/><path d="M313.20833,334.15104l-6.25,-7.75h27.5l-6.25,7.75z" fill="#33e0ff" stroke="#00aac8" stroke-width="1.5" stroke-linecap="round"/><text transform="translate(234.95834,338.54166) scale(0.5,0.5)" font-size="40" xml:space="preserve" fill="#7d5600" fill-rule="nonzero" stroke="none" stroke-width="1" stroke-linecap="butt" stroke-linejoin="miter" stroke-miterlimit="10" stroke-dasharray="" stroke-dashoffset="0" font-family="Times New Roman" font-weight="normal" text-anchor="start" style="mix-blend-mode: normal"><tspan x="0" dy="0">3</tspan></text><text transform="translate(152.95834,331.40104) scale(0.5,0.5)" font-size="40" xml:space="preserve" fill="#00798e" fill-rule="nonzero" stroke="none" stroke-width="1" stroke-linecap="butt" stroke-linejoin="miter" stroke-miterlimit="10" stroke-dasharray="" stroke-dashoffset="0" font-family="Times New Roman" font-weight="normal" text-anchor="start" style="mix-blend-mode: normal"><tspan x="0" dy="0">3</tspan></text><text transform="translate(315.95833,331.90104) scale(0.5,0.5)" font-size="40" xml:space="preserve" fill="#00798e" fill-rule="nonzero" stroke="none" stroke-width="1" stroke-linecap="butt" stroke-linejoin="miter" stroke-miterlimit="10" stroke-dasharray="" stroke-dashoffset="0" font-family="Times New Roman" font-weight="normal" text-anchor="start" style="mix-blend-mode: normal"><tspan x="0" dy="0">3</tspan></text></g></g></svg>