<svg version="1.1" xmlns="http://www.w3.org/2000/svg" xmlns:xlink="http://www.w3.org/1999/xlink" width="357.05" height="270.02604" viewBox="0,0,357.05,270.02604"><g transform="translate(-61.475,-44.36198)"><g data-paper-data="{&quot;isPaintingLayer&quot;:true}" fill-rule="nonzero" stroke-linejoin="miter" stroke-miterlimit="10" stroke-dasharray="" stroke-dashoffset="0" style="mix-blend-mode: normal"><path d="M78.025,103.8073h324" fill="none" stroke="#986800" stroke-width="1.5" stroke-linecap="round"/><path d="M62.525,103.69271c0,-8.28427 6.71573,-15 15,-15c8.28427,0 15,6.71573 15,15c0,8.28427 -6.71573,15 -15,15c-8.28427,0 -15,-6.71573 -15,-15z" fill="#ffc14b" stroke="#ca8900" stroke-width="2" stroke-linecap="butt"/><path d="M143.19167,103.69271c0,-8.28427 6.71573,-15 15,-15c8.28427,0 15,6.71573 15,15c0,8.28427 -6.71573,15 -15,15c-8.28427,0 -15,-6.71573 -15,-15z" fill="#ffc14b" stroke="#ca8900" stroke-width="2" stroke-linecap="butt"/><path d="M225.025,103.8073c0,-8.28427 6.71573,-15 15,-15c8.28427,0 15,6.71573 15,15c0,8.28427 -6.71573,15 -15,15c-8.28427,0 -15,-6.71573 -15,-15z" fill="#ffc14b" stroke="#ca8900" stroke-width="2" stroke-linecap="butt"/><path d="M305.85833,103.64063c0,-8.28427 6.71573,-15 15,-15c8.28427,0 15,6.71573 15,15c0,8.28427 -6.71573,15 -15,15c-8.28427,0 -15,-6.71573 -15,-15z" fill="#ffc14b" stroke="#ca8900" stroke-width="2" stroke-linecap="butt"/><path d="M387.525,103.69271c0,-8.28427 6.71573,-15 15,-15c8.28427,0 15,6.71573 15,15c0,8.28427 -6.71573,15 -15,15c-8.28427,0 -15,-6.71573 -15,-15z" fill="#ffc14b" stroke="#ca8900" stroke-width="2" stroke-linecap="butt"/><path d="M109.275,105.83334l-6.25,-7.75h27.5l-6.25,7.75z" fill="#33e0ff" stroke="#00aac8" stroke-width="1.5" stroke-linecap="round"/><path d="M191.775,105.33334l-6.25,-7.75h27.5l-6.25,7.75z" fill="#33e0ff" stroke="#00aac8" stroke-width="1.5" stroke-linecap="round"/><path d="M271.275,105.33334l-6.25,-7.75h27.5l-6.25,7.75z" fill="#33e0ff" stroke="#00aac8" stroke-width="1.5" stroke-linecap="round"/><path d="M351.775,105.83334l-6.25,-7.75h27.5l-6.25,7.75z" fill="#33e0ff" stroke="#00aac8" stroke-width="1.5" stroke-linecap="round"/><text transform="translate(73.025,110.08334) scale(0.5,0.5)" font-size="40" xml:space="preserve" fill="#7d5600" fill-rule="nonzero" stroke="none" stroke-width="1" stroke-linecap="butt" stroke-linejoin="miter" stroke-miterlimit="10" stroke-dasharray="" stroke-dashoffset="0" font-family="Times New Roman" font-weight="normal" text-anchor="start" style="mix-blend-mode: normal"><tspan x="0" dy="0">1</tspan></text><text transform="translate(153.025,110.08335) scale(0.5,0.5)" font-size="40" xml:space="preserve" fill="#7d5600" fill-rule="nonzero" stroke="none" stroke-width="1" stroke-linecap="butt" stroke-linejoin="miter" stroke-miterlimit="10" stroke-dasharray="" stroke-dashoffset="0" font-family="Times New Roman" font-weight="normal" text-anchor="start" style="mix-blend-mode: normal"><tspan x="0" dy="0">2</tspan></text><text transform="translate(235.025,109.72396) scale(0.5,0.5)" font-size="40" xml:space="preserve" fill="#7d5600" fill-rule="nonzero" stroke="none" stroke-width="1" stroke-linecap="butt" stroke-linejoin="miter" stroke-miterlimit="10" stroke-dasharray="" stroke-dashoffset="0" font-family="Times New Roman" font-weight="normal" text-anchor="start" style="mix-blend-mode: normal"><tspan x="0" dy="0">1</tspan></text><text transform="translate(316.025,109.58335) scale(0.5,0.5)" font-size="40" xml:space="preserve" fill="#7d5600" fill-rule="nonzero" stroke="none" stroke-width="1" stroke-linecap="butt" stroke-linejoin="miter" stroke-miterlimit="10" stroke-dasharray="" stroke-dashoffset="0" font-family="Times New Roman" font-weight="normal" text-anchor="start" style="mix-blend-mode: normal"><tspan x="0" dy="0">2</tspan></text><text transform="translate(397.525,109.58335) scale(0.5,0.5)" font-size="40" xml:space="preserve" fill="#7d5600" fill-rule="nonzero" stroke="none" stroke-width="1" stroke-linecap="butt" stroke-linejoin="miter" stroke-miterlimit="10" stroke-dasharray="" stroke-dashoffset="0" font-family="Times New Roman" font-weight="normal" text-anchor="start" style="mix-blend-mode: normal"><tspan x="0" dy="0">2</tspan></text><path d="M401.975,60.52865h-324" fill="none" stroke="#986800" stroke-width="1.5" stroke-linecap="round"/><path d="M62.475,60.41406c0,-8.28427 6.71573,-15 15,-15c8.28427,0 15,6.71573 15,15c0,8.28427 -6.71573,15 -15,15c-8.28427,0 -15,-6.71573 -15,-15z" fill="#ffc14b" stroke="#ca8900" stroke-width="2" stroke-linecap="butt"/><path d="M143.14167,60.41406c0,-8.28427 6.71573,-15 15,-15c8.28427,0 15,6.71573 15,15c0,8.28427 -6.71573,15 -15,15c-8.28427,0 -15,-6.71573 -15,-15z" fill="#ffc14b" stroke="#ca8900" stroke-width="2" stroke-linecap="butt"/><path d="M224.975,60.52865c0,-8.28427 6.71573,-15 15,-15c8.28427,0 15,6.71573 15,15c0,8.28427 -6.71573,15 -15,15c-8.28427,0 -15,-6.71573 -15,-15z" fill="#ffc14b" stroke="#ca8900" stroke-width="2" stroke-linecap="butt"/><path d="M305.80833,60.36198c0,-8.28427 6.71573,-15 15,-15c8.28427,0 15,6.71573 15,15c0,8.28427 -6.71573,15 -15,15c-8.28427,0 -15,-6.71573 -15,-15z" fill="#ffc14b" stroke="#ca8900" stroke-width="2" stroke-linecap="butt"/><path d="M387.475,60.41406c0,-8.28427 6.71573,-15 15,-15c8.28427,0 15,6.71573 15,15c0,8.28427 -6.71573,15 -15,15c-8.28427,0 -15,-6.71573 -15,-15z" fill="#ffc14b" stroke="#ca8900" stroke-width="2" stroke-linecap="butt"/><path d="M109.225,62.55469l-6.25,-7.75h27.5l-6.25,7.75z" fill="#33e0ff" stroke="#00aac8" stroke-width="1.5" stroke-linecap="round"/><path d="M191.725,62.05469l-6.25,-7.75h27.5l-6.25,7.75z" fill="#33e0ff" stroke="#00aac8" stroke-width="1.5" stroke-linecap="round"/><path d="M271.225,62.05469l-6.25,-7.75h27.5l-6.25,7.75z" fill="#33e0ff" stroke="#00aac8" stroke-width="1.5" stroke-linecap="round"/><path d="M351.725,62.55469l-6.25,-7.75h27.5l-6.25,7.75z" fill="#33e0ff" stroke="#00aac8" stroke-width="1.5" stroke-linecap="round"/><text transform="translate(72.975,66.80469) scale(0.5,0.5)" font-size="40" xml:space="preserve" fill="#7d5600" fill-rule="nonzero" stroke="none" stroke-width="1" stroke-linecap="butt" stroke-linejoin="miter" stroke-miterlimit="10" stroke-dasharray="" stroke-dashoffset="0" font-family="Times New Roman" font-weight="normal" text-anchor="start" style="mix-blend-mode: normal"><tspan x="0" dy="0">1</tspan></text><text transform="translate(152.975,66.8047) scale(0.5,0.5)" font-size="40" xml:space="preserve" fill="#7d5600" fill-rule="nonzero" stroke="none" stroke-width="1" stroke-linecap="butt" stroke-linejoin="miter" stroke-miterlimit="10" stroke-dasharray="" stroke-dashoffset="0" font-family="Times New Roman" font-weight="normal" text-anchor="start" style="mix-blend-mode: normal"><tspan x="0" dy="0">2</tspan></text><text transform="translate(234.975,66.44531) scale(0.5,0.5)" font-size="40" xml:space="preserve" fill="#7d5600" fill-rule="nonzero" stroke="none" stroke-width="1" stroke-linecap="butt" stroke-linejoin="miter" stroke-miterlimit="10" stroke-dasharray="" stroke-dashoffset="0" font-family="Times New Roman" font-weight="normal" text-anchor="start" style="mix-blend-mode: normal"><tspan x="0" dy="0">1</tspan></text><text transform="translate(315.975,66.3047) scale(0.5,0.5)" font-size="40" xml:space="preserve" fill="#7d5600" fill-rule="nonzero" stroke="none" stroke-width="1" stroke-linecap="butt" stroke-linejoin="miter" stroke-miterlimit="10" stroke-dasharray="" stroke-dashoffset="0" font-family="Times New Roman" font-weight="normal" text-anchor="start" style="mix-blend-mode: normal"><tspan x="0" dy="0">2</tspan></text><text transform="translate(397.475,66.3047) scale(0.5,0.5)" font-size="40" xml:space="preserve" fill="#7d5600" fill-rule="nonzero" stroke="none" stroke-width="1" stroke-linecap="butt" stroke-linejoin="miter" stroke-miterlimit="10" stroke-dasharray="" stroke-dashoffset="0" font-family="Times New Roman" font-weight="normal" text-anchor="start" style="mix-blend-mode: normal"><tspan x="0" dy="0">2</tspan></text><text transform="translate(111.525,102.58334) scale(0.5,0.5)" font-size="40" xml:space="preserve" fill="#00798e" fill-rule="nonzero" stroke="none" stroke-width="1" stroke-linecap="butt" stroke-linejoin="miter" stroke-miterlimit="10" stroke-dasharray="" stroke-dashoffset="0" font-family="Times New Roman" font-weight="normal" text-anchor="start" style="mix-blend-mode: normal"><tspan x="0" dy="0">1</tspan></text><text transform="translate(195.025,102.08334) scale(0.5,0.5)" font-size="40" xml:space="preserve" fill="#00798e" fill-rule="nonzero" stroke="none" stroke-width="1" stroke-linecap="butt" stroke-linejoin="miter" stroke-miterlimit="10" stroke-dasharray="" stroke-dashoffset="0" font-family="Times New Roman" font-weight="normal" text-anchor="start" style="mix-blend-mode: normal"><tspan x="0" dy="0">1</tspan></text><text transform="translate(274.025,103.08334) scale(0.5,0.5)" font-size="40" xml:space="preserve" fill="#00798e" fill-rule="nonzero" stroke="none" stroke-width="1" stroke-linecap="butt" stroke-linejoin="miter" stroke-miterlimit="10" stroke-dasharray="" stroke-dashoffset="0" font-family="Times New Roman" font-weight="normal" text-anchor="start" style="mix-blend-mode: normal"><tspan x="0" dy="0">1</tspan></text><text transform="translate(353.525,103.08334) scale(0.5,0.5)" font-size="40" xml:space="preserve" fill="#00798e" fill-rule="nonzero" stroke="none" stroke-width="1" stroke-linecap="butt" stroke-linejoin="miter" stroke-miterlimit="10" stroke-dasharray="" stroke-dashoffset="0" font-family="Times New Roman" font-weight="normal" text-anchor="start" style="mix-blend-mode: normal"><tspan x="0" dy="0">1</tspan></text><path d="M401.975,145.02865h-324" fill="none" stroke="#986800" stroke-width="1.5" stroke-linecap="round"/><path d="M62.475,144.91406c0,-8.28427 6.71573,-15 15,-15c8.28427,0 15,6.71573 15,15c0,8.28427 -6.71573,15 -15,15c-8.28427,0 -15,-6.71573 -15,-15z" fill="#ffc14b" stroke="#ca8900" stroke-width="2" stroke-linecap="butt"/><path d="M143.14167,144.91406c0,-8.28427 6.71573,-15 15,-15c8.28427,0 15,6.71573 15,15c0,8.28427 -6.71573,15 -15,15c-8.28427,0 -15,-6.71573 -15,-15z" fill="#ffc14b" stroke="#ca8900" stroke-width="2" stroke-linecap="butt"/><path d="M224.975,145.02865c0,-8.28427 6.71573,-15 15,-15c8.28427,0 15,6.71573 15,15c0,8.28427 -6.71573,15 -15,15c-8.28427,0 -15,-6.71573 -15,-15z" fill="#ffc14b" stroke="#ca8900" stroke-width="2" stroke-linecap="butt"/><path d="M305.80833,144.86198c0,-8.28427 6.71573,-15 15,-15c8.28427,0 15,6.71573 15,15c0,8.28427 -6.71573,15 -15,15c-8.28427,0 -15,-6.71573 -15,-15z" fill="#ffc14b" stroke="#ca8900" stroke-width="2" stroke-linecap="butt"/><path d="M387.475,144.91406c0,-8.28427 6.71573,-15 15,-15c8.28427,0 15,6.71573 15,15c0,8.28427 -6.71573,15 -15,15c-8.28427,0 -15,-6.71573 -15,-15z" fill="#ffc14b" stroke="#ca8900" stroke-width="2" stroke-linecap="butt"/><path d="M109.225,147.05469l-6.25,-7.75h27.5l-6.25,7.75z" fill="#33e0ff" stroke="#00aac8" stroke-width="1.5" stroke-linecap="round"/><path d="M191.725,146.55469l-6.25,-7.75h27.5l-6.25,7.75z" fill="#33e0ff" stroke="#00aac8" stroke-width="1.5" stroke-linecap="round"/><path d="M271.225,146.55469l-6.25,-7.75h27.5l-6.25,7.75z" fill="#33e0ff" stroke="#00aac8" stroke-width="1.5" stroke-linecap="round"/><path d="M351.725,147.05469l-6.25,-7.75h27.5l-6.25,7.75z" fill="#33e0ff" stroke="#00aac8" stroke-width="1.5" stroke-linecap="round"/><text transform="translate(72.975,151.30469) scale(0.5,0.5)" font-size="40" xml:space="preserve" fill="#7d5600" fill-rule="nonzero" stroke="none" stroke-width="1" stroke-linecap="butt" stroke-linejoin="miter" stroke-miterlimit="10" stroke-dasharray="" stroke-dashoffset="0" font-family="Times New Roman" font-weight="normal" text-anchor="start" style="mix-blend-mode: normal"><tspan x="0" dy="0">0</tspan></text><text transform="translate(152.975,151.3047) scale(0.5,0.5)" font-size="40" xml:space="preserve" fill="#7d5600" fill-rule="nonzero" stroke="none" stroke-width="1" stroke-linecap="butt" stroke-linejoin="miter" stroke-miterlimit="10" stroke-dasharray="" stroke-dashoffset="0" font-family="Times New Roman" font-weight="normal" text-anchor="start" style="mix-blend-mode: normal"><tspan x="0" dy="0">1</tspan></text><text transform="translate(234.975,150.94531) scale(0.5,0.5)" font-size="40" xml:space="preserve" fill="#7d5600" fill-rule="nonzero" stroke="none" stroke-width="1" stroke-linecap="butt" stroke-linejoin="miter" stroke-miterlimit="10" stroke-dasharray="" stroke-dashoffset="0" font-family="Times New Roman" font-weight="normal" text-anchor="start" style="mix-blend-mode: normal"><tspan x="0" dy="0">0</tspan></text><text transform="translate(315.975,150.8047) scale(0.5,0.5)" font-size="40" xml:space="preserve" fill="#7d5600" fill-rule="nonzero" stroke="none" stroke-width="1" stroke-linecap="butt" stroke-linejoin="miter" stroke-miterlimit="10" stroke-dasharray="" stroke-dashoffset="0" font-family="Times New Roman" font-weight="normal" text-anchor="start" style="mix-blend-mode: normal"><tspan x="0" dy="0">1</tspan></text><text transform="translate(397.475,150.8047) scale(0.5,0.5)" font-size="40" xml:space="preserve" fill="#7d5600" fill-rule="nonzero" stroke="none" stroke-width="1" stroke-linecap="butt" stroke-linejoin="miter" stroke-miterlimit="10" stroke-dasharray="" stroke-dashoffset="0" font-family="Times New Roman" font-weight="normal" text-anchor="start" style="mix-blend-mode: normal"><tspan x="0" dy="0">1</tspan></text><text transform="translate(111.475,143.80469) scale(0.5,0.5)" font-size="40" xml:space="preserve" fill="#00798e" fill-rule="nonzero" stroke="none" stroke-width="1" stroke-linecap="butt" stroke-linejoin="miter" stroke-miterlimit="10" stroke-dasharray="" stroke-dashoffset="0" font-family="Times New Roman" font-weight="normal" text-anchor="start" style="mix-blend-mode: normal"><tspan x="0" dy="0">0</tspan></text><text transform="translate(194.475,143.30469) scale(0.5,0.5)" font-size="40" xml:space="preserve" fill="#00798e" fill-rule="nonzero" stroke="none" stroke-width="1" stroke-linecap="butt" stroke-linejoin="miter" stroke-miterlimit="10" stroke-dasharray="" stroke-dashoffset="0" font-family="Times New Roman" font-weight="normal" text-anchor="start" style="mix-blend-mode: normal"><tspan x="0" dy="0">0</tspan></text><text transform="translate(273.975,144.30469) scale(0.5,0.5)" font-size="40" xml:space="preserve" fill="#00798e" fill-rule="nonzero" stroke="none" stroke-width="1" stroke-linecap="butt" stroke-linejoin="miter" stroke-miterlimit="10" stroke-dasharray="" stroke-dashoffset="0" font-family="Times New Roman" font-weight="normal" text-anchor="start" style="mix-blend-mode: normal"><tspan x="0" dy="0">0</tspan></text><text transform="translate(353.475,144.30469) scale(0.5,0.5)" font-size="40" xml:space="preserve" fill="#00798e" fill-rule="nonzero" stroke="none" stroke-width="1" stroke-linecap="butt" stroke-linejoin="miter" stroke-miterlimit="10" stroke-dasharray="" stroke-dashoffset="0" font-family="Times New Roman" font-weight="normal" text-anchor="start" style="mix-blend-mode: normal"><tspan x="0" dy="0">0</tspan></text><path d="M77.925,186.52865h324" fill="none" stroke="#986800" stroke-width="1.5" stroke-linecap="round"/><path d="M143.09167,186.41406c0,-8.28427 6.71573,-15 15,-15c8.28427,0 15,6.71573 15,15c0,8.28427 -6.71573,15 -15,15c-8.28427,0 -15,-6.71573 -15,-15z" fill="#ffc14b" stroke="#ca8900" stroke-width="2" stroke-linecap="butt"/><path d="M305.75833,186.36198c0,-8.28427 6.71573,-15 15,-15c8.28427,0 15,6.71573 15,15c0,8.28427 -6.71573,15 -15,15c-8.28427,0 -15,-6.71573 -15,-15z" fill="#ffc14b" stroke="#ca8900" stroke-width="2" stroke-linecap="butt"/><path d="M387.425,186.41406c0,-8.28427 6.71573,-15 15,-15c8.28427,0 15,6.71573 15,15c0,8.28427 -6.71573,15 -15,15c-8.28427,0 -15,-6.71573 -15,-15z" fill="#ffc14b" stroke="#ca8900" stroke-width="2" stroke-linecap="butt"/><path d="M109.175,188.55469l-6.25,-7.75h27.5l-6.25,7.75z" fill="#33e0ff" stroke="#00aac8" stroke-width="1.5" stroke-linecap="round"/><path d="M191.675,188.05469l-6.25,-7.75h27.5l-6.25,7.75z" fill="#33e0ff" stroke="#00aac8" stroke-width="1.5" stroke-linecap="round"/><path d="M271.175,188.05469l-6.25,-7.75h27.5l-6.25,7.75z" fill="#33e0ff" stroke="#00aac8" stroke-width="1.5" stroke-linecap="round"/><path d="M351.675,188.55469l-6.25,-7.75h27.5l-6.25,7.75z" fill="#33e0ff" stroke="#00aac8" stroke-width="1.5" stroke-linecap="round"/><text transform="translate(152.925,192.8047) scale(0.5,0.5)" font-size="40" xml:space="preserve" fill="#7d5600" fill-rule="nonzero" stroke="none" stroke-width="1" stroke-linecap="butt" stroke-linejoin="miter" stroke-miterlimit="10" stroke-dasharray="" stroke-dashoffset="0" font-family="Times New Roman" font-weight="normal" text-anchor="start" style="mix-blend-mode: normal"><tspan x="0" dy="0">1</tspan></text><text transform="translate(315.925,192.3047) scale(0.5,0.5)" font-size="40" xml:space="preserve" fill="#7d5600" fill-rule="nonzero" stroke="none" stroke-width="1" stroke-linecap="butt" stroke-linejoin="miter" stroke-miterlimit="10" stroke-dasharray="" stroke-dashoffset="0" font-family="Times New Roman" font-weight="normal" text-anchor="start" style="mix-blend-mode: normal"><tspan x="0" dy="0">1</tspan></text><text transform="translate(397.425,192.3047) scale(0.5,0.5)" font-size="40" xml:space="preserve" fill="#7d5600" fill-rule="nonzero" stroke="none" stroke-width="1" stroke-linecap="butt" stroke-linejoin="miter" stroke-miterlimit="10" stroke-dasharray="" stroke-dashoffset="0" font-family="Times New Roman" font-weight="normal" text-anchor="start" style="mix-blend-mode: normal"><tspan x="0" dy="0">1</tspan></text><text transform="translate(111.425,185.30469) scale(0.5,0.5)" font-size="40" xml:space="preserve" fill="#00798e" fill-rule="nonzero" stroke="none" stroke-width="1" stroke-linecap="butt" stroke-linejoin="miter" stroke-miterlimit="10" stroke-dasharray="" stroke-dashoffset="0" font-family="Times New Roman" font-weight="normal" text-anchor="start" style="mix-blend-mode: normal"><tspan x="0" dy="0">0</tspan></text><text transform="translate(194.425,184.80469) scale(0.5,0.5)" font-size="40" xml:space="preserve" fill="#00798e" fill-rule="nonzero" stroke="none" stroke-width="1" stroke-linecap="butt" stroke-linejoin="miter" stroke-miterlimit="10" stroke-dasharray="" stroke-dashoffset="0" font-family="Times New Roman" font-weight="normal" text-anchor="start" style="mix-blend-mode: normal"><tspan x="0" dy="0">0</tspan></text><text transform="translate(273.925,185.80469) scale(0.5,0.5)" font-size="40" xml:space="preserve" fill="#00798e" fill-rule="nonzero" stroke="none" stroke-width="1" stroke-linecap="butt" stroke-linejoin="miter" stroke-miterlimit="10" stroke-dasharray="" stroke-dashoffset="0" font-family="Times New Roman" font-weight="normal" text-anchor="start" style="mix-blend-mode: normal"><tspan x="0" dy="0">0</tspan></text><text transform="translate(353.425,185.80469) scale(0.5,0.5)" font-size="40" xml:space="preserve" fill="#00798e" fill-rule="nonzero" stroke="none" stroke-width="1" stroke-linecap="butt" stroke-linejoin="miter" stroke-miterlimit="10" stroke-dasharray="" stroke-dashoffset="0" font-family="Times New Roman" font-weight="normal" text-anchor="start" style="mix-blend-mode: normal"><tspan x="0" dy="0">0</tspan></text><path d="M77.675,227.52865h324" fill="none" stroke="#986800" stroke-width="1.5" stroke-linecap="round"/><path d="M142.84167,227.41406c0,-8.28427 6.71573,-15 15,-15c8.28427,0 15,6.71573 15,15c0,8.28427 -6.71573,15 -15,15c-8.28427,0 -15,-6.71573 -15,-15z" fill="#ffc14b" stroke="#ca8900" stroke-width="2" stroke-linecap="butt"/><path d="M305.50833,227.36198c0,-8.28427 6.71573,-15 15,-15c8.28427,0 15,6.71573 15,15c0,8.28427 -6.71573,15 -15,15c-8.28427,0 -15,-6.71573 -15,-15z" fill="#ffc14b" stroke="#ca8900" stroke-width="2" stroke-linecap="butt"/><path d="M387.175,227.41406c0,-8.28427 6.71573,-15 15,-15c8.28427,0 15,6.71573 15,15c0,8.28427 -6.71573,15 -15,15c-8.28427,0 -15,-6.71573 -15,-15z" fill="#ffc14b" stroke="#ca8900" stroke-width="2" stroke-linecap="butt"/><path d="M108.925,229.55469l-6.25,-7.75h27.5l-6.25,7.75z" fill="#33e0ff" stroke="#00aac8" stroke-width="1.5" stroke-linecap="round"/><path d="M228.425,229.05469l-6.25,-7.75h27.5l-6.25,7.75z" fill="#33e0ff" stroke="#00aac8" stroke-width="1.5" stroke-linecap="round"/><path d="M351.425,229.55469l-6.25,-7.75h27.5l-6.25,7.75z" fill="#33e0ff" stroke="#00aac8" stroke-width="1.5" stroke-linecap="round"/><text transform="translate(152.675,233.8047) scale(0.5,0.5)" font-size="40" xml:space="preserve" fill="#7d5600" fill-rule="nonzero" stroke="none" stroke-width="1" stroke-linecap="butt" stroke-linejoin="miter" stroke-miterlimit="10" stroke-dasharray="" stroke-dashoffset="0" font-family="Times New Roman" font-weight="normal" text-anchor="start" style="mix-blend-mode: normal"><tspan x="0" dy="0">1</tspan></text><text transform="translate(315.675,233.3047) scale(0.5,0.5)" font-size="40" xml:space="preserve" fill="#7d5600" fill-rule="nonzero" stroke="none" stroke-width="1" stroke-linecap="butt" stroke-linejoin="miter" stroke-miterlimit="10" stroke-dasharray="" stroke-dashoffset="0" font-family="Times New Roman" font-weight="normal" text-anchor="start" style="mix-blend-mode: normal"><tspan x="0" dy="0">1</tspan></text><text transform="translate(397.175,233.3047) scale(0.5,0.5)" font-size="40" xml:space="preserve" fill="#7d5600" fill-rule="nonzero" stroke="none" stroke-width="1" stroke-linecap="butt" stroke-linejoin="miter" stroke-miterlimit="10" stroke-dasharray="" stroke-dashoffset="0" font-family="Times New Roman" font-weight="normal" text-anchor="start" style="mix-blend-mode: normal"><tspan x="0" dy="0">1</tspan></text><text transform="translate(111.175,226.30469) scale(0.5,0.5)" font-size="40" xml:space="preserve" fill="#00798e" fill-rule="nonzero" stroke="none" stroke-width="1" stroke-linecap="butt" stroke-linejoin="miter" stroke-miterlimit="10" stroke-dasharray="" stroke-dashoffset="0" font-family="Times New Roman" font-weight="normal" text-anchor="start" style="mix-blend-mode: normal"><tspan x="0" dy="0">0</tspan></text><text transform="translate(231.675,225.80469) scale(0.5,0.5)" font-size="40" xml:space="preserve" fill="#00798e" fill-rule="nonzero" stroke="none" stroke-width="1" stroke-linecap="butt" stroke-linejoin="miter" stroke-miterlimit="10" stroke-dasharray="" stroke-dashoffset="0" font-family="Times New Roman" font-weight="normal" text-anchor="start" style="mix-blend-mode: normal"><tspan x="0" dy="0">0</tspan></text><text transform="translate(353.175,226.80469) scale(0.5,0.5)" font-size="40" xml:space="preserve" fill="#00798e" fill-rule="nonzero" stroke="none" stroke-width="1" stroke-linecap="butt" stroke-linejoin="miter" stroke-miterlimit="10" stroke-dasharray="" stroke-dashoffset="0" font-family="Times New Roman" font-weight="normal" text-anchor="start" style="mix-blend-mode: normal"><tspan x="0" dy="0">0</tspan></text><path d="M77.675,267.02865h324" fill="none" stroke="#986800" stroke-width="1.5" stroke-linecap="round"/><path d="M142.84167,266.91406c0,-8.28427 6.71573,-15 15,-15c8.28427,0 15,6.71573 15,15c0,8.28427 -6.71573,15 -15,15c-8.28427,0 -15,-6.71573 -15,-15z" fill="#ffc14b" stroke="#ca8900" stroke-width="2" stroke-linecap="butt"/><path d="M305.50833,266.86198c0,-8.28427 6.71573,-15 15,-15c8.28427,0 15,6.71573 15,15c0,8.28427 -6.71573,15 -15,15c-8.28427,0 -15,-6.71573 -15,-15z" fill="#ffc14b" stroke="#ca8900" stroke-width="2" stroke-linecap="butt"/><path d="M387.175,266.91406c0,-8.28427 6.71573,-15 15,-15c8.28427,0 15,6.71573 15,15c0,8.28427 -6.71573,15 -15,15c-8.28427,0 -15,-6.71573 -15,-15z" fill="#ffc14b" stroke="#ca8900" stroke-width="2" stroke-linecap="butt"/><path d="M108.925,269.05469l-6.25,-7.75h27.5l-6.25,7.75z" fill="#33e0ff" stroke="#00aac8" stroke-width="1.5" stroke-linecap="round"/><path d="M228.425,268.55469l-6.25,-7.75h27.5l-6.25,7.75z" fill="#33e0ff" stroke="#00aac8" stroke-width="1.5" stroke-linecap="round"/><path d="M351.425,269.05469l-6.25,-7.75h27.5l-6.25,7.75z" fill="#33e0ff" stroke="#00aac8" stroke-width="1.5" stroke-linecap="round"/><text transform="translate(152.675,273.3047) scale(0.5,0.5)" font-size="40" xml:space="preserve" fill="#7d5600" fill-rule="nonzero" stroke="none" stroke-width="1" stroke-linecap="butt" stroke-linejoin="miter" stroke-miterlimit="10" stroke-dasharray="" stroke-dashoffset="0" font-family="Times New Roman" font-weight="normal" text-anchor="start" style="mix-blend-mode: normal"><tspan x="0" dy="0">1</tspan></text><text transform="translate(315.675,272.8047) scale(0.5,0.5)" font-size="40" xml:space="preserve" fill="#7d5600" fill-rule="nonzero" stroke="none" stroke-width="1" stroke-linecap="butt" stroke-linejoin="miter" stroke-miterlimit="10" stroke-dasharray="" stroke-dashoffset="0" font-family="Times New Roman" font-weight="normal" text-anchor="start" style="mix-blend-mode: normal"><tspan x="0" dy="0">1</tspan></text><text transform="translate(397.175,272.8047) scale(0.5,0.5)" font-size="40" xml:space="preserve" fill="#7d5600" fill-rule="nonzero" stroke="none" stroke-width="1" stroke-linecap="butt" stroke-linejoin="miter" stroke-miterlimit="10" stroke-dasharray="" stroke-dashoffset="0" font-family="Times New Roman" font-weight="normal" text-anchor="start" style="mix-blend-mode: normal"><tspan x="0" dy="0">1</tspan></text><text transform="translate(111.175,265.80469) scale(0.5,0.5)" font-size="40" xml:space="preserve" fill="#00798e" fill-rule="nonzero" stroke="none" stroke-width="1" stroke-linecap="butt" stroke-linejoin="miter" stroke-miterlimit="10" stroke-dasharray="" stroke-dashoffset="0" font-family="Times New Roman" font-weight="normal" text-anchor="start" style="mix-blend-mode: normal"><tspan x="0" dy="0">1</tspan></text><text transform="translate(231.675,265.30469) scale(0.5,0.5)" font-size="40" xml:space="preserve" fill="#00798e" fill-rule="nonzero" stroke="none" stroke-width="1" stroke-linecap="butt" stroke-linejoin="miter" stroke-miterlimit="10" stroke-dasharray="" stroke-dashoffset="0" font-family="Times New Roman" font-weight="normal" text-anchor="start" style="mix-blend-mode: normal"><tspan x="0" dy="0">1</tspan></text><text transform="translate(353.175,266.30469) scale(0.5,0.5)" font-size="40" xml:space="preserve" fill="#00798e" fill-rule="nonzero" stroke="none" stroke-width="1" stroke-linecap="butt" stroke-linejoin="miter" stroke-miterlimit="10" stroke-dasharray="" stroke-dashoffset="0" font-family="Times New Roman" font-weight="normal" text-anchor="start" style="mix-blend-mode: normal"><tspan x="0" dy="0">1</tspan></text><text transform="translate(161.97754,308.63802) scale(0.5,0.5)" font-size="40" xml:space="preserve" fill="#8f0000" fill-rule="nonzero" stroke="none" stroke-width="1" stroke-linecap="butt" stroke-linejoin="miter" stroke-miterlimit="10" stroke-dasharray="" stroke-dashoffset="0" font-family="Times New Roman" font-weight="normal" text-anchor="start" style="mix-blend-mode: normal"><tspan x="0" dy="0">Answer = 4 + 3 = 7</tspan></text></g></g></svg>