<svg version="1.1" xmlns="http://www.w3.org/2000/svg" xmlns:xlink="http://www.w3.org/1999/xlink" width="167.7387" height="144.16097" viewBox="0,0,167.7387,144.16097"><g transform="translate(-156.29907,-84.0057)"><g data-paper-data="{&quot;isPaintingLayer&quot;:true}" fill-rule="nonzero" stroke-linejoin="miter" stroke-miterlimit="10" stroke-dasharray="" stroke-dashoffset="0" style="mix-blend-mode: normal"><path d="M323.16667,227.66667h-166l82.66667,-142.66666z" fill="none" stroke="#000000" stroke-width="1" stroke-linecap="round"/><path d="M210.25,136.41667h59l-52.625,90.125l-29.25,-49.75h57.5l-19.75,-39l-22.25,39.5l-7.75,-13h15.25l-7.75,-13.5h15.25z" fill="none" stroke="#000000" stroke-width="1" stroke-linecap="round"/><path d="M267.625,136.29167c0,-1.10457 0.89543,-2 2,-2c1.10457,0 2,0.89543 2,2c0,1.10457 -0.89543,2 -2,2c-1.10457,0 -2,-0.89543 -2,-2z" fill="#ff0000" stroke="none" stroke-width="0" stroke-linecap="butt"/><path d="M187.375,176.79167l29.5,50" fill="none" stroke="#ff0000" stroke-width="1.5" stroke-linecap="round"/><path d="M224.875,137.29167l20.25,39.75" fill="none" stroke="#ff0000" stroke-width="1.5" stroke-linecap="round"/><path d="M210.625,137.54167l7,13.25" fill="none" stroke="#ff0000" stroke-width="1.5" stroke-linecap="round"/><path d="M194.625,163.29167l8.25,14" fill="none" stroke="#ff0000" stroke-width="1.5" stroke-linecap="round"/><path d="M202.625,150.29167l7,13.25" fill="none" stroke="#ff0000" stroke-width="1.5" stroke-linecap="round"/></g></g></svg>